<?xml version="1.0" encoding="UTF-8" standalone="no"?>
<!-- Created with Inkscape (http://www.inkscape.org/) -->

<svg
   xmlns:dc="http://purl.org/dc/elements/1.1/"
   xmlns:cc="http://creativecommons.org/ns#"
   xmlns:rdf="http://www.w3.org/1999/02/22-rdf-syntax-ns#"
   xmlns:svg="http://www.w3.org/2000/svg"
   xmlns="http://www.w3.org/2000/svg"
   xmlns:xlink="http://www.w3.org/1999/xlink"
   xmlns:sodipodi="http://sodipodi.sourceforge.net/DTD/sodipodi-0.dtd"
   xmlns:inkscape="http://www.inkscape.org/namespaces/inkscape"
   id="svg2"
   version="1.1"
   inkscape:version="0.48.5 r10040"
   width="2481"
   height="3503"
   sodipodi:docname="E36P07.svg">
  <metadata
     id="metadata8">
    <rdf:RDF>
      <cc:Work
         rdf:about="">
        <dc:format>image/svg+xml</dc:format>
        <dc:type
           rdf:resource="http://purl.org/dc/dcmitype/StillImage" />
        <dc:title />
      </cc:Work>
    </rdf:RDF>
  </metadata>
  <defs
     id="defs6" />
  <sodipodi:namedview
     pagecolor="#1e1e1e"
     bordercolor="#111111"
     borderopacity="1"
     objecttolerance="10"
     gridtolerance="10"
     guidetolerance="10"
     inkscape:pageopacity="0"
     inkscape:pageshadow="2"
     inkscape:window-width="1276"
     inkscape:window-height="756"
     id="namedview4"
     showgrid="false"
     inkscape:zoom="0.39655976"
     inkscape:cx="1185.1278"
     inkscape:cy="1110.1417"
     inkscape:window-x="59"
     inkscape:window-y="0"
     inkscape:window-maximized="0"
     inkscape:current-layer="layer1"
     inkscape:pagecheckerboard="0"
     inkscape:snap-global="false" />
  <g
     inkscape:groupmode="layer"
     id="layer2"
     inkscape:label="artwork"
     sodipodi:insensitive="true">
    <image
       sodipodi:absref="/Users/su_huynh/Downloads/lang 2/vi/../gfx_Pepper-and-Carrot_by-David-Revoy_E36P07.png"
       xlink:href="../gfx_Pepper-and-Carrot_by-David-Revoy_E36P07.png"
       width="2481"
       height="3503"
       id="image10"
       x="0"
       y="0" />
  </g>
  <g
     inkscape:groupmode="layer"
     id="layer3"
     inkscape:label="speechbubbles"
     style="display:inline">
    <path
       style="color:#000000;display:inline;overflow:visible;visibility:visible;fill:#ffffff;fill-opacity:1;fill-rule:nonzero;stroke:none;stroke-width:0.723436px;marker:none;enable-background:accumulate"
       d="M 1392.6191 2369.9277 C 1360.7506 2370.5619 1328.8762 2375.3745 1298.4556 2384.9535 C 1276.346 2393.6415 1260.6559 2415.673 1258.5562 2439.197 C 1256.6399 2456.0811 1257.9852 2473.3107 1261.9413 2489.8138 C 1265.2795 2502.9773 1270.3641 2515.9563 1278.4655 2526.9349 C 1290.2578 2539.847 1307.4021 2545.5142 1323.618 2550.5956 C 1378.4381 2567.5201 1437.7113 2566.1828 1493.1029 2552.6617 C 1509.5726 2548.4354 1526.1597 2543.7025 1541.1647 2535.5535 C 1557.6682 2524.1873 1566.5759 2504.3117 1568.0014 2484.7188 C 1570.6026 2466.6971 1573.0609 2447.6313 1566.5423 2430.1233 C 1559.0901 2411.2136 1542.5783 2397.4573 1524.8504 2388.4605 C 1497.3936 2374.6382 1466.1704 2371.3967 1435.8553 2370.6838 C 1421.4452 2370.3462 1407.0356 2369.808 1392.6191 2369.9277 z "
       id="path4546-6-3"
       inkscape:connector-curvature="0"
       sodipodi:nodetypes="cssssssc" />
    <path
       style="color:#000000;display:inline;overflow:visible;visibility:visible;fill:#ffffff;fill-opacity:1;fill-rule:nonzero;stroke:none;stroke-width:1.12849px;marker:none;enable-background:accumulate"
       d="m 1276.0008,3121.2879 c -50.3615,1.1115 -101.3781,9.9281 -147.4747,32.2546 -19.4781,9.4515 -36.9081,25.2017 -45.4273,46.022 -19.0846,42.2639 -14.6555,95.2993 13.0019,131.8953 10.9868,14.7764 28.9282,21.8102 46.3623,24.1535 37.4701,7.2537 75.3709,12.6341 113.5615,14.0039 51.8647,2.5609 103.845,1.5026 155.7728,0.5792 27.2476,-0.7393 54.6512,-3.5221 81.013,-11.3152 15.5284,-3.9627 32.0154,-8.2447 44.0787,-19.9145 13.7545,-14.1624 19.3936,-34.4628 21.0086,-53.9016 3.311,-37.7405 -6.1432,-77.1641 -28.9505,-106.8383 -14.6557,-18.5268 -35.5181,-30.6292 -57.3183,-37.9464 -33.0684,-11.4935 -68.1366,-14.955 -102.8239,-17.5359 -30.873,-1.9635 -61.8619,-1.9402 -92.8041,-1.4566 z"
       id="path3330-0"
       inkscape:connector-curvature="0"
       sodipodi:nodetypes="zsssssz" />
    <path
       style="color:#000000;display:inline;overflow:visible;visibility:visible;fill:#ffffff;fill-opacity:1;fill-rule:nonzero;stroke:none;stroke-width:1px;marker:none;enable-background:accumulate"
       d="m 1415.0769,2516.9442 c 13.078,48.3092 -10.2417,132.5122 -94.8507,157.2445 61.4826,-42.714 67.542,-99.1938 51.107,-143.1634 -14.1878,-37.9586 -18.9368,-56.3084 -18.9368,-56.3084 z"
       id="path4440-3"
       inkscape:connector-curvature="0"
       sodipodi:nodetypes="ccscc" />
    <path
       style="color:#000000;display:inline;overflow:visible;visibility:visible;fill:#ffffff;fill-opacity:1;fill-rule:nonzero;stroke:none;stroke-width:1.05023px;marker:none;enable-background:accumulate"
       d="m 1880.5202,3245.1068 c 2.2085,-31.7629 12.1073,-31.4913 46.1902,-2.7607 -8.9937,-56.6463 36.7658,-59.3247 79.4131,-65.0705 -4.8912,-15.916 -11.6693,-38.2895 36.129,-53.5443 -45.7166,-2.1974 -47.656,-17.2553 -33.086,-32.6716 -34.0385,7.3462 -58.3861,14.6762 -18.1274,-19.5049 -37.997,19.4188 -60.9707,29.4286 -46.6405,-20.4338 -14.3883,6.7868 -58.5903,35.1678 -78.7695,-25.9462 -0.638,33.2488 -57.184,60.6052 -84.9534,17.683 14.0583,35.7635 3.0629,71.3915 -53.6329,48.0907 54.4907,39.0305 2.2272,39.6552 -13.9489,42.9402 45.9271,5.3047 36.7135,17.4578 4.9221,37.6185 94.5952,3.1469 42.5371,23.176 43.0006,36.7345 57.5862,-12.4701 53.8853,12.8638 62.1299,31.6447 54.8403,-57.2852 38.1795,-47.0534 57.3737,5.2204 z"
       id="path3549-3-1"
       inkscape:connector-curvature="0"
       sodipodi:nodetypes="ccccccccccccccc" />
    <path
       style="fill:#ffffff;fill-rule:evenodd;stroke:none"
       d="m 1959.225,3144.1291 c -68.2849,1.796 -136.3141,9.1972 -204.4931,13.2772 -30.05,4.1896 -59.7014,18.5726 -80.5022,43.6569 -10.5969,15.1059 -15.8029,33.7559 -20.9954,51.7793 -9.8329,38.2138 -3.6707,81.8043 18.1712,113.4968 9.6308,14.0615 22.8009,25.0823 37.7998,30.8753 16.2001,6.4053 33.1854,9.8462 50.0575,13.2084 19.2391,3.6624 38.6421,6.1194 58.1063,7.65 44.7214,3.974 89.6645,6.4897 134.5038,3.5792 29.1748,-1.7481 58.3758,-2.855 87.5878,-3.4174 14.6023,-0.5851 29.3418,0.1018 43.7677,-2.9591 31.8535,-6.2107 62.0211,-24.8601 82.2187,-53.3622 11.6136,-16.1522 19.5433,-36.2039 19.7581,-57.1615 0.8017,-23.2982 -3.4981,-46.4661 -9.7877,-68.5622 -9.4496,-29.2089 -28.5522,-55.4353 -54.4155,-67.8121 -21.8455,-10.5187 -45.7424,-13.2119 -68.965,-17.633 -30.7171,-4.9457 -61.7849,-7.0893 -92.812,-6.6156 z"
       id="path1289"
       inkscape:connector-curvature="0"
       sodipodi:nodetypes="csssssssscc" />
    <path
       style="color:#000000;display:inline;overflow:visible;visibility:visible;fill:#ffffff;fill-opacity:1;fill-rule:nonzero;stroke:none;stroke-width:1.20459px;marker:none;enable-background:accumulate"
       d="m 383.31528,3178.3461 c 7.90371,-15.2948 41.23452,-13.2985 53.03054,-8.8438 -22.34304,-20.2401 -20.07815,-31.1953 13.55035,-29.5557 -51.94808,-37.6508 -6.77936,-28.2088 3.28665,-35.4235 -42.58695,-15.4528 -21.1535,-27.2125 -11.57865,-40.1001 -50.50627,-5.5458 -31.16513,-25.8031 -31.07193,-43.4742 -5.33057,7.7618 -28.87377,30.6558 -26.56078,2.7654 -36.82225,23.1348 -79.28833,36.2037 -76.5794,-10.4783 -16.44817,21.9701 -31.13994,30.479 -26.56087,2.7653 -38.00001,32.8282 -66.34575,16.7937 -95.22577,3.5382 -9.31894,10.1245 -12.38041,26.8076 -37.5265,20.3017 2.21677,11.1849 -7.39088,17.7561 -27.51003,20.2115 25.15381,9.1464 29.08375,16.3708 -20.09307,18.7855 36.62748,4.3877 70.68295,9.2622 24.45208,29.6889 13.43801,1.9557 48.13423,-15.4784 25.4826,43.4614 25.70449,-17.0164 51.85913,-25.2072 77.78773,18.4447 17.29535,-18.7712 44.0951,-26.2298 51.97588,0.1768 5.36489,-10.3819 22.43004,-12.7755 36.5411,-11.8575 4.88673,4.8286 9.74845,11.2082 14.62425,19.4168 11.59583,-15.0441 27.26853,-24.4177 51.97582,0.1769 z"
       id="path3549-3-7-5"
       inkscape:connector-curvature="0"
       sodipodi:nodetypes="cccccccccccccccccccc" />
    <path
       style="color:#000000;fill:#ffffff;fill-opacity:1;fill-rule:nonzero;stroke:none;stroke-width:1.04203999px;marker:none;visibility:visible;display:inline;overflow:visible;enable-background:accumulate"
       d="m 380.98253,3125.1259 c -47.54928,0.8869 -95.65775,12.1999 -138.6261,39.3464 -27.4162,20.281 -41.8858,63.0309 -39.42887,103.0838 0.78361,24.5664 5.8057,51.6174 21.58176,67.3162 17.24865,17.0439 38.26008,26.2094 59.11095,32.7563 43.37642,12.5958 88.11264,9.9362 132.24186,10.478 39.30938,-0.1388 78.75334,1.4082 117.92529,-3.7365 18.28426,-2.4792 37.27993,-7.8495 51.74277,-23.5242 17.28639,-17.5376 28.62488,-44.8883 29.16203,-73.5141 2.94398,-49.5273 -20.03534,-100.9155 -56.2389,-118.8182 -38.29581,-21.6058 -80.50184,-25.4501 -121.54617,-30.7378 -18.60062,-1.9162 -37.26275,-2.9936 -55.92462,-2.6499 z"
       id="path3970-3"
       inkscape:connector-curvature="0"
       sodipodi:nodetypes="cccscsc" />
    <path
       style="color:#000000;display:inline;overflow:visible;visibility:visible;fill:#ffffff;fill-opacity:1;fill-rule:nonzero;stroke:none;stroke-width:1.35295px;marker:none;enable-background:accumulate"
       d="m 655.60209,3020.9694 c 36.37209,56.4559 22.81983,82.4225 15.3529,101.9191 -8.64995,-2.3738 -25.16043,-4.9757 -25.16043,-4.9757 0,0 -35.04306,58.5581 -44.82978,72.5197 -9.78688,13.9616 -38.13341,-23.0686 -38.13341,-23.0686 0,0 68.63867,-58.196 66.88456,-75.5935 13.71733,3.6481 17.96983,3.6232 26.02992,4.8839 8.53279,-9.9614 11.95899,-55.362 -0.14376,-75.6849 z"
       id="path4456-8"
       inkscape:connector-curvature="0"
       sodipodi:nodetypes="cccscccc" />
    <path
       style="color:#000000;display:inline;overflow:visible;visibility:visible;fill:#ffffff;fill-opacity:1;fill-rule:nonzero;stroke:none;stroke-width:0.979134px;marker:none;enable-background:accumulate"
       d="m 1279.5978,3141.166 c 37.0189,-51.8094 10.4316,-107.7029 -22.8129,-123.0094 56.1643,10.3304 79.8618,67.0698 67.3523,120.7861 -6.1858,26.5623 -44.5394,2.2233 -44.5394,2.2233 z"
       id="path5010-4"
       inkscape:connector-curvature="0"
       sodipodi:nodetypes="ccsc"
       inkscape:transform-center-x="-17.477815"
       inkscape:transform-center-y="-10.798976" />
    <path
       style="color:#000000;display:inline;overflow:visible;visibility:visible;fill:#ffffff;fill-opacity:1;fill-rule:nonzero;stroke:none;stroke-width:1.49141px;marker:none;enable-background:accumulate"
       d="m 1912.7642,3104.2315 c -3.1414,-3.557 32.154,-46.7146 32.154,-46.7146 0,0 1.8091,-18.6763 2.2497,-22.5415 7.8248,-6.4155 25.8113,-4.3144 25.8113,-4.3144 l -34.365,-47.8529 16.512,38.7245 -25.6669,-0.2625 -0.1009,31.7053 c -10.1565,5.7069 -22.8946,9.8614 -42.2141,10.0585 z"
       id="path4448"
       inkscape:connector-curvature="0"
       sodipodi:nodetypes="cccccccccc" />
  </g>
  <g
     inkscape:groupmode="layer"
     id="layer1"
     inkscape:label="txt"
     style="display:inline">
    <text
       xml:space="preserve"
       style="font-size:14.5145998px;font-style:normal;font-variant:normal;font-weight:bold;font-stretch:normal;text-align:center;line-height:0%;letter-spacing:0px;word-spacing:0px;text-anchor:middle;fill:#000000;fill-opacity:1;stroke:none;font-family:ComicSpice;-inkscape-font-specification:ComicSpice Bold"
       x="284.33972"
       y="3110.5491"
       id="text4246-3-3"
       sodipodi:linespacing="0%"><tspan
         sodipodi:role="line"
         x="284.33972"
         y="3110.5491"
         id="tspan852"
         style="font-size:54.42979813px;font-style:normal;font-variant:normal;font-weight:bold;font-stretch:normal;line-height:1.25;font-family:ComicSpice;-inkscape-font-specification:ComicSpice Bold">Sĩ quan!</tspan></text>
    <text
       xml:space="preserve"
       style="font-style:normal;font-variant:normal;font-weight:normal;font-stretch:normal;text-align:center;line-height:0%;letter-spacing:0px;word-spacing:0px;text-anchor:middle;fill:#000000;fill-opacity:1;stroke:none;font-family:ComicSpice;-inkscape-font-specification:ComicSpice"
       x="406.04767"
       y="3195.5732"
       id="text4246-3-5-9"
       sodipodi:linespacing="0%"><tspan
         sodipodi:role="line"
         style="font-size:45px;font-style:normal;font-variant:normal;font-weight:normal;font-stretch:normal;line-height:1.25;font-family:ComicSpice;-inkscape-font-specification:ComicSpice"
         x="406.04767"
         y="3195.5732"
         id="tspan9617">Ông thừa nhận</tspan><tspan
         sodipodi:role="line"
         style="font-size:45px;font-style:normal;font-variant:normal;font-weight:normal;font-stretch:normal;line-height:1.25;font-family:ComicSpice;-inkscape-font-specification:ComicSpice"
         x="406.04767"
         y="3251.8232"
         id="tspan8385">đây là đình của</tspan><tspan
         sodipodi:role="line"
         style="font-size:45px;font-style:normal;font-variant:normal;font-weight:normal;font-stretch:normal;line-height:1.25;font-family:ComicSpice;-inkscape-font-specification:ComicSpice"
         x="406.04767"
         y="3308.0732"
         id="tspan8387">phù thủy đó không?</tspan></text>
    <text
       xml:space="preserve"
       style="font-style:normal;font-variant:normal;font-weight:normal;font-stretch:normal;text-align:center;line-height:0%;letter-spacing:0px;word-spacing:0px;text-anchor:middle;fill:#000000;fill-opacity:1;stroke:none;font-family:ComicSpice;-inkscape-font-specification:ComicSpice"
       x="1413.2664"
       y="2451.6616"
       id="text4246-3-5-9-3"
       sodipodi:linespacing="0%"><tspan
         sodipodi:role="line"
         style="font-size:45px;font-style:normal;font-variant:normal;font-weight:normal;font-stretch:normal;line-height:1.25;font-family:ComicSpice;-inkscape-font-specification:ComicSpice"
         x="1413.2664"
         y="2451.6616"
         id="tspan25784">Xác suất rất</tspan><tspan
         sodipodi:role="line"
         style="font-size:45px;font-style:normal;font-variant:normal;font-weight:normal;font-stretch:normal;line-height:1.25;font-family:ComicSpice;-inkscape-font-specification:ComicSpice"
         x="1413.2664"
         y="2507.9116"
         id="tspan8365">cao, chỉ huy!</tspan></text>
    <text
       xml:space="preserve"
       style="font-style:normal;font-variant:normal;font-weight:normal;font-stretch:normal;text-align:center;line-height:0%;letter-spacing:0px;word-spacing:0px;text-anchor:middle;fill:#000000;fill-opacity:1;stroke:none;font-family:ComicSpice;-inkscape-font-specification:ComicSpice"
       x="1315.355"
       y="3202.9702"
       id="text4246-3-5-9-3-3-6"
       sodipodi:linespacing="0%"><tspan
         sodipodi:role="line"
         style="font-size:45px;font-style:normal;font-variant:normal;font-weight:normal;font-stretch:normal;line-height:1.25;font-family:ComicSpice;-inkscape-font-specification:ComicSpice"
         x="1315.355"
         y="3202.9702"
         id="tspan36535">Vài gián điệp của</tspan><tspan
         sodipodi:role="line"
         style="font-size:45px;font-style:normal;font-variant:normal;font-weight:normal;font-stretch:normal;line-height:1.25;font-family:ComicSpice;-inkscape-font-specification:ComicSpice"
         x="1315.355"
         y="3259.2202"
         id="tspan8372">chúng tôi mới xác minh</tspan><tspan
         sodipodi:role="line"
         style="font-size:45px;font-style:normal;font-variant:normal;font-weight:normal;font-stretch:normal;line-height:1.25;font-family:ComicSpice;-inkscape-font-specification:ComicSpice"
         x="1315.355"
         y="3315.4702"
         id="tspan8374">phù thủy đó đang ở đây.</tspan></text>
    <text
       xml:space="preserve"
       style="font-style:normal;font-variant:normal;font-weight:bold;font-stretch:normal;text-align:center;line-height:0%;letter-spacing:0px;word-spacing:0px;text-anchor:middle;fill:#000000;fill-opacity:1;stroke:none;font-family:ComicSpice;-inkscape-font-specification:ComicSpice Bold"
       x="1883.0886"
       y="3126.877"
       id="text4246-3-3-7"
       sodipodi:linespacing="0%"><tspan
         sodipodi:role="line"
         style="font-size:45px;font-style:normal;font-variant:normal;font-weight:bold;font-stretch:normal;line-height:1.25;font-family:ComicSpice;-inkscape-font-specification:ComicSpice Bold"
         x="1883.0886"
         y="3126.877"
         id="tspan67-0">Ừừừừ ...</tspan><tspan
         sodipodi:role="line"
         x="1883.0886"
         y="3183.127"
         id="tspan852-9" /></text>
    <text
       xml:space="preserve"
       style="font-style:normal;font-variant:normal;font-weight:normal;font-stretch:normal;text-align:center;line-height:0%;letter-spacing:0px;word-spacing:0px;text-anchor:middle;fill:#000000;fill-opacity:1;stroke:none;font-family:ComicSpice;-inkscape-font-specification:ComicSpice"
       x="1919.5736"
       y="3212.498"
       id="text4246-3-5-9-3-3-6-3"
       sodipodi:linespacing="0%"><tspan
         sodipodi:role="line"
         style="font-size:45px;font-style:normal;font-variant:normal;font-weight:normal;font-stretch:normal;line-height:1.25;fill:#000000;font-family:ComicSpice;-inkscape-font-specification:ComicSpice"
         x="1919.5736"
         y="3212.498"
         id="tspan61151">Thì ra là vậy, cô phù thủy</tspan><tspan
         sodipodi:role="line"
         style="font-size:45px;font-style:normal;font-variant:normal;font-weight:normal;font-stretch:normal;line-height:1.25;fill:#000000;font-family:ComicSpice;-inkscape-font-specification:ComicSpice"
         x="1919.5736"
         y="3268.748"
         id="tspan8395">đang đe dọa công nghệ và</tspan><tspan
         sodipodi:role="line"
         style="font-size:45px;font-style:normal;font-variant:normal;font-weight:normal;font-stretch:normal;line-height:1.25;fill:#000000;font-family:ComicSpice;-inkscape-font-specification:ComicSpice"
         x="1919.5736"
         y="3324.998"
         id="tspan8403">truyền thống chiến sĩ của</tspan><tspan
         sodipodi:role="line"
         style="font-size:45px;font-style:normal;font-variant:normal;font-weight:normal;font-stretch:normal;line-height:1.25;fill:#000000;font-family:ComicSpice;-inkscape-font-specification:ComicSpice"
         x="1919.5736"
         y="3381.248"
         id="tspan8407">chúng tôi đang ở đây!</tspan></text>
  </g>
</svg>
