<?xml version="1.0" encoding="UTF-8" standalone="no"?>
<!-- Created with Inkscape (http://www.inkscape.org/) -->

<svg
   xmlns:dc="http://purl.org/dc/elements/1.1/"
   xmlns:cc="http://creativecommons.org/ns#"
   xmlns:rdf="http://www.w3.org/1999/02/22-rdf-syntax-ns#"
   xmlns:svg="http://www.w3.org/2000/svg"
   xmlns="http://www.w3.org/2000/svg"
   xmlns:xlink="http://www.w3.org/1999/xlink"
   xmlns:sodipodi="http://sodipodi.sourceforge.net/DTD/sodipodi-0.dtd"
   xmlns:inkscape="http://www.inkscape.org/namespaces/inkscape"
   id="svg2"
   version="1.1"
   inkscape:version="0.48.5 r10040"
   width="2481"
   height="3503"
   sodipodi:docname="E36P11.svg"
   inkscape:export-filename="/Users/su_huynh/Downloads/lang 36/vi/E36P11.png"
   inkscape:export-xdpi="45"
   inkscape:export-ydpi="45">
  <metadata
     id="metadata8">
    <rdf:RDF>
      <cc:Work
         rdf:about="">
        <dc:format>image/svg+xml</dc:format>
        <dc:type
           rdf:resource="http://purl.org/dc/dcmitype/StillImage" />
        <dc:title></dc:title>
      </cc:Work>
    </rdf:RDF>
  </metadata>
  <defs
     id="defs6" />
  <sodipodi:namedview
     pagecolor="#1e1e1e"
     bordercolor="#111111"
     borderopacity="1"
     objecttolerance="10"
     gridtolerance="10"
     guidetolerance="10"
     inkscape:pageopacity="0"
     inkscape:pageshadow="2"
     inkscape:window-width="1276"
     inkscape:window-height="724"
     id="namedview4"
     showgrid="false"
     inkscape:zoom="0.17280684"
     inkscape:cx="2270.7183"
     inkscape:cy="2402.4319"
     inkscape:window-x="48"
     inkscape:window-y="44"
     inkscape:window-maximized="0"
     inkscape:current-layer="layer1"
     inkscape:pagecheckerboard="0"
     inkscape:snap-global="false" />
  <g
     inkscape:groupmode="layer"
     id="layer2"
     inkscape:label="artwork"
     sodipodi:insensitive="true">
    <image
       sodipodi:absref="/Users/su_huynh/Downloads/lang 36/vi/../gfx_Pepper-and-Carrot_by-David-Revoy_E36P11.png"
       xlink:href="../gfx_Pepper-and-Carrot_by-David-Revoy_E36P11.png"
       y="0"
       x="0"
       id="image10"
       height="3503"
       width="2481" />
  </g>
  <g
     inkscape:groupmode="layer"
     id="layer3"
     inkscape:label="speechbubbles"
     style="display:inline">
    <path
       style="color:#000000;display:inline;overflow:visible;visibility:visible;fill:#ffffff;fill-opacity:1;fill-rule:nonzero;stroke:none;stroke-width:0.649444px;marker:none;enable-background:accumulate"
       d="m 384.22008,282.95177 c -36.52082,21.41551 -81.08506,17.53589 -121.80587,16.52247 -42.52036,-3.44423 -93.06761,-16.67254 -112.2994,-58.54734 -17.96129,-38.78476 2.10016,-87.11707 40.45297,-105.22628 35.18838,-16.98124 75.64954,-18.66814 114.10065,-19.46171 49.92399,1.16875 104.76155,32.33519 112.49934,84.58625 4.21244,30.58574 -9.514,62.20135 -32.94769,82.12661 z"
       id="path4040-40"
       inkscape:connector-curvature="0"
       sodipodi:nodetypes="zssssz" />
    <path
       style="color:#000000;display:inline;overflow:visible;visibility:visible;fill:#ffffff;fill-opacity:1;fill-rule:nonzero;stroke:none;stroke-width:0.895703px;marker:none;enable-background:accumulate"
       d="m 617.61025,105.88672 c -27.34146,0.48289 -55.30789,1.99485 -81.01026,10.55273 -19.27663,6.28483 -36.60817,17.59434 -46.89078,32.88401 -10.78797,15.11503 -15.24648,32.66921 -17.99958,49.9598 -3.75274,20.5909 -5.45897,42.02901 1.14989,62.34728 10.14236,29.028 40.31222,51.93542 75.16053,58.49046 45.59561,10.88095 94.50308,13.37614 140.83587,4.25676 26.56867,-5.64189 52.37207,-15.47968 72.95579,-30.96068 13.87857,-11.91714 20.4242,-28.63021 21.90443,-45.0154 2.97723,-25.0214 3.57178,-50.80265 -4.83215,-75.17205 -8.00131,-22.85714 -29.42504,-41.60583 -55.43746,-50.51416 -20.18886,-7.20666 -41.79469,-10.9992 -63.31684,-14.11157 -14.05315,-1.87992 -28.28771,-2.85024 -42.51944,-2.71718 z"
       id="path3365-90"
       inkscape:connector-curvature="0"
       sodipodi:nodetypes="csssssc" />
    <path
       style="color:#000000;display:inline;overflow:visible;visibility:visible;fill:#ffffff;fill-opacity:1;fill-rule:nonzero;stroke:none;stroke-width:0.976718px;marker:none;enable-background:accumulate"
       d="m 841.7647,253.23429 c 0.60665,-53.37318 12.42387,-103.84716 117.18111,-102.10038 78.54749,1.30895 99.46519,42.43199 101.20539,96.38138 1.2265,38.01967 -41.2683,73.2116 -108.75404,71.34686 -64.50346,-1.78194 -104.91519,-24.9245 -109.63246,-65.62786 z"
       id="path5026-3"
       inkscape:connector-curvature="0"
       sodipodi:nodetypes="csssc" />
    <path
       style="color:#000000;display:inline;overflow:visible;visibility:visible;fill:#ffffff;fill-opacity:1;fill-rule:nonzero;stroke:none;stroke-width:1.06703px;marker:none;enable-background:accumulate"
       d="m 958.1944,309.83323 c -43.34053,0.0194 -52.18434,75.22752 -14.63328,128.2568 -16.5114,-21.59304 -72.61174,-61.13455 -7.77479,-172.66812 29.32893,-50.45175 14.74185,29.39163 14.74185,29.39163 z"
       id="path4035-4"
       inkscape:connector-curvature="0"
       sodipodi:nodetypes="ccscc" />
    <path
       style="color:#000000;fill:#ffffff;fill-opacity:1;fill-rule:nonzero;stroke:none;stroke-width:0.91729999px;marker:none;visibility:visible;display:inline;overflow:visible;enable-background:accumulate"
       d="m 1011.012,1106.6079 c -26.43581,0.7558 -53.24587,5.1024 -76.27963,15.4871 -16.40054,8.1469 -26.93722,22.0118 -31.19305,36.5037 -7.94354,25.4135 -10.6984,52.0674 -5.14873,77.9565 2.35716,10.5642 5.9219,21.0925 12.17216,30.7065 4.1586,6.0773 10.51963,11.2686 18.3892,14.5227 10.67207,4.8976 22.22492,8.5106 33.76261,11.9822 22.82406,6.2822 47.08524,8.558 71.13634,9.8357 11.3654,0.5451 22.7583,-0.4977 33.8165,-2.517 14.447,-2.6062 28.4874,-6.4798 42.046,-11.1068 17.888,-6.5383 34.6397,-16.1498 44.7245,-29.5536 9.8558,-13.047 13.0333,-28.2908 14.4971,-43.1449 2.0786,-19.2988 1.301,-39.2217 -7.1468,-57.6397 -7.7166,-16.2757 -23.8246,-30.1346 -44.2321,-37.423 -23.7669,-8.9104 -50.1839,-12.164 -76.1744,-14.566 -10.0801,-0.8221 -20.2336,-1.2498 -30.3697,-1.0434 z"
       id="path3365-90-4"
       inkscape:connector-curvature="0"
       sodipodi:nodetypes="csssssc" />
    <path
       style="fill:#ffffff;fill-rule:evenodd;stroke:none;stroke-width:1.18884px;stroke-linecap:butt;stroke-linejoin:miter;stroke-opacity:1"
       d="m 1051.5368,1104.645 c -7.0579,-18.4075 1.4646,-58.4739 28.7582,-72.4342 -20.0938,4.5574 -50.5407,19.6541 -55.3048,46.5586 -7.4355,41.9896 24.8168,27.8537 24.8168,27.8537 z"
       id="path4248"
       inkscape:connector-curvature="0"
       sodipodi:nodetypes="ccscc" />
    <path
       style="color:#000000;display:inline;overflow:visible;visibility:visible;fill:#ffffff;fill-opacity:1;fill-rule:nonzero;stroke:none;stroke-width:1.54322px;marker:none;enable-background:accumulate"
       d="m 1763.9574,1162.7593 c -56.3611,1.2504 -112.5304,5.9054 -168.5344,11.2584 -24.5232,2.707 -49.9985,6.0999 -71.2162,17.743 -32.3721,17.7334 -53.7211,49.96 -53.176,83.0804 -1.1856,24.6175 3.4221,50.5164 19.8893,71.2422 17.8172,22.045 47.1755,35.77 77.5693,40.4528 42.0022,7.5176 84.958,9.6759 127.2542,15.6091 67.0651,7.7288 133.9737,17.021 201.52,21.1463 65.6628,2.339 131.203,-8.3822 193.2235,-26.3977 26.4481,-6.9604 53.6078,-14.8978 74.7673,-30.7916 20.3392,-15.0794 32.0225,-37.7544 33.2332,-60.6448 2.6522,-22.744 0.7059,-46.4268 -9.8242,-67.638 -9.6077,-17.5971 -27.3829,-31.4705 -48.1605,-38.992 -29.3744,-11.8597 -61.5472,-16.9804 -93.1517,-22.4383 -55.9671,-8.7229 -112.9564,-10.846 -169.7216,-11.6758 -37.8849,-0.8502 -75.7684,-2.036 -113.6722,-1.954 z"
       id="path4546-6-5"
       inkscape:connector-curvature="0"
       sodipodi:nodetypes="cssssc" />
    <path
       style="color:#000000;display:inline;overflow:visible;visibility:visible;fill:#ffffff;fill-opacity:1;fill-rule:nonzero;stroke:none;stroke-width:1.00376px;marker:none;enable-background:accumulate"
       d="m 1708.9009,1378.7198 c -15.0304,0.7686 -30.249,1.5531 -44.9132,6.4878 -18.5042,6.7228 -35.8964,21.5376 -45.4583,43.0811 -6.6099,15.3973 -6.9698,34.7592 -0.4532,49.9925 7.0948,17.3844 20.2639,29.2546 33.9736,37.5218 22.3514,13.303 47.4044,17.0248 71.9404,19.2006 29.727,2.4153 59.5797,1.7256 89.3745,2.3266 56.3471,0.3822 112.7396,1.051 169.0932,-2.7314 21.6206,-1.8246 43.3711,-4.3611 64.4621,-11.3215 15.6195,-5.5469 31.2213,-14.8541 41.8022,-30.9849 11.6127,-18.2228 14.0073,-44.8387 5.6618,-65.318 -7.0161,-18.297 -20.7172,-31.6625 -36.1216,-37.2899 -32.8504,-14.7003 -68.4978,-19.0046 -103.37,-14.3817 -21.4518,2.5405 -42.9758,6.3149 -64.5066,4.5964 -24.2307,-1.2172 -48.4294,-3.4825 -72.7182,-3.1143 -35.008,-0.3109 -70.032,0.9637 -105.0473,1.7698 -1.2398,0.055 -2.4796,0.1102 -3.7194,0.1654 z"
       id="path4546-6-5-7-9"
       inkscape:connector-curvature="0"
       sodipodi:nodetypes="cssssc" />
    <path
       style="color:#000000;display:inline;overflow:visible;visibility:visible;fill:#ffffff;fill-opacity:1;fill-rule:nonzero;stroke:none;stroke-width:1.16782px;marker:none;enable-background:accumulate"
       d="m 1834.6759,1063.9074 c -58.4661,16.7056 -74.2086,55.188 -42.9987,96.676 31.21,41.487 10.2962,43.1429 10.2962,43.1429 l -38.5277,-15.376 c 0,0 -61.7873,-122.5503 71.2302,-124.4429 z"
       id="path3072-56"
       inkscape:connector-curvature="0"
       sodipodi:nodetypes="ccccc" />
    <path
       style="color:#000000;fill:#ffffff;fill-opacity:1;fill-rule:nonzero;stroke:none;stroke-width:0.53121299px;marker:none;visibility:visible;display:inline;overflow:visible;enable-background:accumulate"
       d="m 139.02415,1627.5134 c 15.08858,-13.7787 201.21919,-23.5914 244.21738,7.571 29.9655,21.7169 18.40572,63.3637 -7.27854,74.2047 -25.68427,10.8417 -149.68612,13.8952 -184.92959,8.3737 -31.69277,-4.9645 -64.95906,-15.6511 -66.71291,-44.0939 -0.7158,-11.6083 -0.38492,-32.2773 14.70366,-46.0555 z"
       id="path4040-5"
       inkscape:connector-curvature="0"
       sodipodi:nodetypes="zssssz" />
    <path
       style="color:#000000;display:inline;overflow:visible;visibility:visible;fill:#ffffff;fill-opacity:1;fill-rule:nonzero;stroke:none;stroke-width:0.791779px;marker:none;enable-background:accumulate"
       d="m 233.22496,1712.5896 c 17.72695,-22.517 236.40418,-38.5528 286.921,12.3724 35.20525,35.4896 21.62412,103.5483 -8.55126,121.2646 -30.1754,17.7174 -175.86009,22.7074 -217.26619,13.6842 -37.23455,-8.1128 -76.31776,-25.5768 -78.37828,-72.0577 -0.84094,-18.9703 -0.45222,-52.7473 17.27473,-75.2635 z"
       id="path4040-5-3"
       inkscape:connector-curvature="0"
       sodipodi:nodetypes="zssssz" />
    <path
       style="color:#000000;display:inline;overflow:visible;visibility:visible;fill:#ffffff;fill-opacity:1;fill-rule:nonzero;stroke:none;stroke-width:0.855677px;marker:none;enable-background:accumulate"
       d="m 467.32955,1948.136 c 13.3495,-41.5666 52.33232,-60.4288 7.51958,-104.8642 -33.47159,-33.1897 12.91326,-29.7973 12.91326,-29.7973 0,0 5.02259,-41.3782 24.01835,27.0751 18.99576,68.4534 -9.8869,64.3755 -44.45119,107.5864 z"
       id="path3072-6"
       inkscape:connector-curvature="0"
       sodipodi:nodetypes="csczc" />
    <path
       style="fill:#ffffff;stroke:none;stroke-width:1.06269"
       d="m 648.85732,1730.1201 c -11.22175,-76.5007 70.8139,-115.1924 131.15308,-112.723 88.78518,-8.7008 178.60453,-5.3418 267.0976,4.4695 66.501,10.7781 109.1027,94.2417 71.8849,156.3201 -42.1876,64.3363 -124.96626,56.6219 -190.17054,62.9721 -75.86992,1.7482 -155.17027,-0.035 -226.33463,-30.4452 -28.1094,-16.6843 -46.54473,-47.7754 -53.63041,-80.5935 z"
       id="path3286-6"
       inkscape:connector-curvature="0"
       sodipodi:nodetypes="csssssssc" />
    <path
       style="fill:#ffffff;stroke:none"
       d="m 634.3512,1887.1107 c -11.4945,-64.0059 72.53508,-96.378 134.34083,-94.312 90.94317,-7.2797 242.94567,-4.4694 333.58947,3.7395 68.1174,9.0177 111.7546,78.8493 73.6322,130.7884 -43.213,53.8283 -162.0036,47.3739 -228.79272,52.6869 -77.71396,1.4627 -196.94183,-0.029 -269.83584,-25.4726 -28.79262,-13.9592 -35.67604,-39.9722 -42.93394,-67.4302 z"
       id="path3286-6-7"
       inkscape:connector-curvature="0"
       sodipodi:nodetypes="sssssss" />
    <path
       style="fill:#ffffff;stroke:none;stroke-width:0.835231"
       d="m 732.86459,1988.2364 c -3.51573,-53.9327 71.56051,-81.2101 124.22701,-79.4692 78.51387,-6.134 156.938,-3.7659 233.6672,3.151 57.3795,7.5985 87.8161,66.44 50.0791,110.205 -42.2782,45.3569 -114.1735,39.9181 -171.83111,44.3951 -66.62314,1.2324 -135.96052,-0.025 -195.80508,-21.4638 -23.25234,-11.7623 -36.83844,-33.6814 -40.33712,-56.8181 z"
       id="path3286-6-7-4"
       inkscape:connector-curvature="0"
       sodipodi:nodetypes="csssssssc" />
    <path
       style="fill:#ffffff;stroke:none;stroke-width:0.755494"
       d="m 1556.1078,2263.7186 c -40.5776,0.9856 -81.571,1.4285 -121.3541,8.2171 -23.4836,5.0646 -46.516,14.6572 -60.3222,30.3859 -12.0378,15.0743 -10.4346,34.6485 0.032,49.9505 8.638,14.5227 26.7065,25.5007 47.2516,28.7663 46.3375,10.8118 95.2925,11.8471 143.394,11.8441 44.0679,-0.2085 88.1393,-2.118 131.9173,-5.9578 24.2957,-2.6624 49.3393,-8.0568 67.8913,-20.8645 22.4519,-15.4056 32.2393,-41.4194 21.0864,-63.0951 -7.7078,-14.8343 -25.3174,-25.8059 -45.0785,-30.5955 -20.8526,-5.1627 -43.0509,-4.7949 -64.6804,-6.0981 -39.6502,-1.8463 -79.3882,-3.227 -119.119,-2.5776 -0.3394,0.011 -0.6788,0.016 -1.0182,0.025 z"
       id="path3286-6-7-4-2-5"
       inkscape:connector-curvature="0"
       sodipodi:nodetypes="csssssssc" />
    <path
       style="display:inline;fill:#ffffff;stroke:none;stroke-width:1.01613"
       d="m 1576.6393,2336.9936 c -40.969,1.7659 -82.358,2.5593 -122.5249,14.7227 -23.7103,9.0742 -46.9649,26.2616 -60.9043,54.4429 -12.154,27.0089 -10.5353,62.0803 0.032,89.4972 8.7213,26.0206 26.9642,45.69 47.7075,51.541 46.7846,19.3717 96.212,21.2267 144.7775,21.2214 44.4932,-0.3736 88.9898,-3.795 133.1902,-10.6747 24.5301,-4.7703 49.8153,-14.4355 68.5464,-37.3833 22.6685,-27.6025 32.5503,-74.2119 21.2899,-113.0486 -7.7823,-26.5789 -25.5617,-46.2369 -45.5136,-54.8185 -21.0537,-9.2502 -43.4662,-8.5912 -65.3044,-10.926 -40.0328,-3.3081 -80.1543,-5.782 -120.2684,-4.6184 -0.3426,0.02 -0.6853,0.029 -1.0279,0.045 z"
       id="path3286-6-7-4-2-5-3"
       inkscape:connector-curvature="0"
       sodipodi:nodetypes="csssssssc" />
    <path
       style="color:#000000;display:inline;overflow:visible;visibility:visible;fill:#ffffff;fill-opacity:1;fill-rule:nonzero;stroke:none;stroke-width:1.03365px;marker:none;enable-background:accumulate"
       d="m 1109.0561,1984.7544 c -8.1997,41.8065 59.3043,70.6591 115.2035,48.7714 -22.9931,10.09 -81.6027,63.8105 -171.9044,-28.8625 -40.8476,-41.9203 41.4313,-16.5735 41.4313,-16.5735 z"
       id="path4035-4-5"
       inkscape:connector-curvature="0"
       sodipodi:nodetypes="ccscc" />
    <path
       style="color:#000000;display:inline;overflow:visible;visibility:visible;fill:#ffffff;fill-opacity:1;fill-rule:nonzero;stroke:none;stroke-width:1.14715px;marker:none;enable-background:accumulate"
       d="m 1640.0206,2360.0065 c 85.321,-69.4317 155.0537,-160.9776 126.0876,-275.9291 50.0818,114.8531 -29.8722,233.4391 -50.2498,258.0963 -21.5049,26.0213 -75.8378,17.8328 -75.8378,17.8328 z"
       id="path4008-7"
       inkscape:connector-curvature="0"
       sodipodi:nodetypes="ccsc" />
    <path
       style="color:#000000;display:inline;overflow:visible;visibility:visible;fill:#ffffff;fill-opacity:1;fill-rule:nonzero;stroke:none;stroke-width:0.923908px;marker:none;enable-background:accumulate"
       d="m 1999.7453,2481.5298 c 2.3308,-54.303 42.207,-94.2785 147.9697,-84.7482 56.6523,5.1058 120.9338,8.2785 118.1755,87.8248 -2.7583,79.5464 -95.096,78.0975 -114.1175,80.0803 -19.0213,1.9828 -118.4149,-5.7151 -136.2571,-32.6526 -11.1688,-16.8627 -15.7793,-33.6902 -15.7706,-50.5043 z"
       id="path4546-6-89"
       inkscape:connector-curvature="0"
       sodipodi:nodetypes="cssssc" />
    <path
       style="fill:#ffffff;fill-rule:evenodd;stroke:none;stroke-width:1px;stroke-linecap:butt;stroke-linejoin:miter;stroke-opacity:1"
       d="m 2127.4405,2420.4639 c 0,0 -20.8561,-32.9672 -21.8804,-43.1562 -1.0243,-10.189 2.4576,-31.6896 11.9397,-43.6552 -22.2118,19.0145 -28.0641,35.9803 -27.9104,44.0276 0.1532,8.0482 12.5159,40.8376 12.5159,40.8376 z"
       id="path1367"
       inkscape:connector-curvature="0"
       inkscape:transform-center-x="-1.8067567"
       inkscape:transform-center-y="-52.12792"
       sodipodi:nodetypes="cscscc" />
    <path
       style="color:#000000;display:inline;overflow:visible;visibility:visible;fill:#ffffff;fill-opacity:1;fill-rule:nonzero;stroke:none;stroke-width:0.942339px;marker:none;enable-background:accumulate"
       d="m 344.6648,2688.4878 c -50.60513,0.5708 -102.02477,2.3063 -150.91773,20.2949 -24.12609,9.316 -47.03358,27.3632 -60.49879,54.6 -12.11064,24.5018 -15.32361,56.6281 -5.42591,83.1112 8.75364,24.5329 27.61742,42.3971 48.51963,47.9668 28.10941,10.2056 57.1283,15.7397 86.0694,20.7786 78.01441,12.397 157.66238,11.9336 235.13485,-5.7705 21.85061,-5.1737 43.84218,-13.5905 61.78001,-30.5738 14.41973,-13.2844 26.04566,-32.3192 29.75511,-54.5101 6.32949,-33.8827 -2.58454,-72.679 -24.7921,-94.5648 -16.09266,-15.7188 -36.4584,-21.9881 -56.17009,-26.5667 -32.93369,-7.3205 -66.38948,-9.7106 -99.71042,-12.6139 -21.2265,-1.4372 -42.48493,-2.2507 -63.74396,-2.1517 z"
       id="path4546-7"
       inkscape:connector-curvature="0"
       sodipodi:nodetypes="cssssc" />
    <path
       style="color:#000000;display:inline;overflow:visible;visibility:visible;fill:#ffffff;fill-opacity:1;fill-rule:nonzero;stroke:none;stroke-width:1.19696px;marker:none;enable-background:accumulate"
       d="m 310.18788,2871.5088 c -36.75155,0.8193 -73.91606,6.1732 -106.55052,25.8203 -20.02581,12.3925 -37.95681,31.8953 -47.19666,58.9224 -8.82074,25.1197 -10.76088,55.9717 -2.2461,83.9115 5.41775,18.3906 13.94152,35.8256 25.35073,49.1787 11.62296,11.6309 25.5354,17.2693 38.98433,22.6325 29.23224,10.8736 59.07258,15.5849 88.71862,19.397 23.15677,2.7322 46.33778,4.7959 69.40382,4.9702 20.00797,-0.5469 39.93308,-2.1609 59.65282,-5.0665 26.98454,-4.3287 53.88697,-12.519 76.78063,-30.4277 15.9711,-12.766 29.47845,-32.0208 34.43353,-56.6791 4.88964,-23.8613 3.25628,-50.3678 -2.92402,-74.9871 -5.91006,-22.2633 -18.17538,-42.0509 -33.60231,-54.5157 -21.79282,-18.2667 -46.87375,-25.5795 -71.22057,-30.7727 -30.3403,-6.2846 -60.74027,-8.3618 -91.0898,-11.2698 -12.85801,-0.9106 -25.70117,-1.3254 -38.4945,-1.114 z"
       id="path4546-6-5-4"
       inkscape:connector-curvature="0"
       sodipodi:nodetypes="cssssc" />
    <path
       style="color:#000000;display:inline;overflow:visible;visibility:visible;fill:#ffffff;fill-opacity:1;fill-rule:nonzero;stroke:none;stroke-width:0.94912px;marker:none;enable-background:accumulate"
       d="m 570.40008,2788.5105 c 0.70291,-20.5931 2.79564,-98.204 79.29359,-67.917 -12.96153,-15.3177 -101.3034,-57.4847 -117.55274,67.9555 -4.05901,31.3344 6.93857,21.4416 13.2428,23.8225 6.30431,2.3809 25.01635,-23.861 25.01635,-23.861 z"
       id="path4064-5"
       inkscape:connector-curvature="0"
       sodipodi:nodetypes="ccszc" />
    <path
       style="fill:#ffffff;stroke:none;stroke-width:0.768141"
       d="m 1428.2655,2662.0926 c -58.0834,0.9233 -116.4207,3.0072 -173.7921,13.7868 -21.6537,4.2349 -43.7905,9.6729 -62.5697,22.854 -10.8392,7.6153 -19.9068,18.2822 -25.6919,30.9504 -9.8145,20.4817 -13.465,44.1433 -12.168,67.129 1.5475,22.6463 9.6362,45.3697 24.9897,60.9924 16.187,16.9557 37.5172,26.3212 58.7831,32.6695 28.4791,8.2434 58.0132,10.5336 87.3193,12.1032 42.5132,1.8442 85.0683,0.5955 127.5836,-0.4765 47.6957,-1.6962 95.7728,-5.1368 142.1115,-18.4821 21.9735,-6.6438 43.9821,-15.6931 61.8116,-31.7281 11.4895,-10.6908 20.4328,-25.6331 21.9003,-42.3978 1.8775,-16.1243 0.4311,-32.522 -2.4126,-48.399 -4.771,-22.5265 -16.7899,-43.304 -34.0438,-56.7029 -21.0175,-17.2682 -46.6649,-25.7704 -72.0536,-31.476 -37.8081,-8.2674 -76.4631,-10.2803 -114.9198,-10.915 -8.9497,-0.1186 -17.8986,-0.073 -26.8476,0.092 z"
       id="path3280-8-0"
       inkscape:connector-curvature="0"
       sodipodi:nodetypes="csssc" />
    <path
       style="color:#000000;display:inline;overflow:visible;visibility:visible;fill:#ffffff;fill-opacity:1;fill-rule:nonzero;stroke:none;stroke-width:1px;marker:none;enable-background:accumulate"
       d="m 1190.5649,2938.1193 c 71.9512,20.8726 126.9981,-3.0998 138.6013,-80.4717 29.2254,-33.921 39.4944,-8.1295 39.4944,-8.1295 0,0 9.6333,15.8558 9.2,26.1866 -1.6876,40.2341 -97.4111,114.3526 -187.2957,62.4146 z"
       id="path3072-7"
       inkscape:connector-curvature="0"
       sodipodi:nodetypes="cccsc" />
    <path
       style="fill:#ffffff;fill-rule:evenodd;stroke:none;stroke-width:1px;stroke-linecap:butt;stroke-linejoin:miter;stroke-opacity:1"
       d="m 611.87816,457.91854 c -12.3953,-22.626 4.8341,-35.579 4.6846,-49.244 -0.1543,-14.107 -33.2797,-25.956 -34.0153,-39.032 -0.7356,-13.076 20.5032,-26.957 19.032,-47.388 -1.4712,-20.432 -25.011,-24.518 -22.8041,-0.818 2.2069,23.701 -15.6571,27.839 -11.7699,46.584 6.483,31.261 30.8848,30.638 38.523,39.431 5.057,5.822 -4.6847,18.594 -2.4778,32.487 2.2069,13.894 8.8275,17.98 8.8275,17.98 z"
       id="path4272-2"
       inkscape:connector-curvature="0"
       sodipodi:nodetypes="csssssssc" />
    <path
       style="display:inline;fill:#ffffff;stroke:none;stroke-width:0.877336"
       d="M 395.5572,452.67668 C 407.56611,407.77396 413.32098,333.81277 360.54542,296.86263 333.08948,277.6397 320.11233,262.96148 320.11233,262.96148 l 22.24546,-19.14958 c 105.35115,77.35453 72.21397,163.85407 53.19941,208.86478 z"
       id="path3063-1-0"
       inkscape:connector-curvature="0"
       sodipodi:nodetypes="csccc" />
  </g>
  <g
     inkscape:groupmode="layer"
     id="layer1"
     inkscape:label="txt">
    <text
       id="text4246-4-2-7"
       y="195.79843"
       x="276.44409"
       style="font-style:normal;font-variant:normal;font-weight:normal;font-stretch:normal;text-align:center;line-height:0%;letter-spacing:0px;word-spacing:0px;text-anchor:middle;fill:#000000;fill-opacity:1;stroke:none;font-family:ComicSpice;-inkscape-font-specification:ComicSpice"
       xml:space="preserve"
       sodipodi:linespacing="0%"><tspan
         y="195.79843"
         x="276.44409"
         style="font-size:45px;line-height:1.25000000000000000;fill:#000000;-inkscape-font-specification:ComicSpice;font-family:ComicSpice;font-weight:normal;font-style:normal;font-stretch:normal;font-variant:normal"
         sodipodi:role="line"
         id="tspan2967">Chị ấy bị</tspan><tspan
         y="254.72701"
         x="276.44409"
         style="font-size:45px;line-height:1.25000000000000000;fill:#000000;-inkscape-font-specification:ComicSpice;font-family:ComicSpice;font-weight:normal;font-style:normal;font-stretch:normal;font-variant:normal"
         sodipodi:role="line"
         id="tspan4221">gì vậy?</tspan></text>
    <text
       id="text4246-4-2-7-3"
       y="176.08881"
       x="630.43268"
       style="font-style:normal;font-variant:normal;font-weight:normal;font-stretch:normal;text-align:center;line-height:0%;letter-spacing:0px;word-spacing:0px;text-anchor:middle;fill:#000000;fill-opacity:1;stroke:none;font-family:ComicSpice;-inkscape-font-specification:ComicSpice"
       xml:space="preserve"
       sodipodi:linespacing="0%"><tspan
         y="176.08881"
         x="630.43268"
         style="font-size:45px;font-style:normal;font-variant:normal;font-weight:normal;font-stretch:normal;line-height:1.25;fill:#000000;font-family:ComicSpice;-inkscape-font-specification:ComicSpice"
         sodipodi:role="line"
         id="tspan3727">Chị Hạt Tiêu?</tspan><tspan
         y="232.33881"
         x="630.43268"
         style="font-size:45px;font-style:normal;font-variant:normal;font-weight:normal;font-stretch:normal;line-height:1.25;fill:#000000;font-family:ComicSpice;-inkscape-font-specification:ComicSpice"
         sodipodi:role="line"
         id="tspan10316">Có chuyện</tspan><tspan
         y="288.58881"
         x="630.43268"
         style="font-size:45px;font-style:normal;font-variant:normal;font-weight:normal;font-stretch:normal;line-height:1.25;fill:#000000;font-family:ComicSpice;-inkscape-font-specification:ComicSpice"
         sodipodi:role="line"
         id="tspan4283">gì không??</tspan></text>
    <text
       id="text4246-4-2-7-3-5"
       y="216.69748"
       x="952.75238"
       style="font-style:normal;font-variant:normal;font-weight:normal;font-stretch:normal;text-align:center;line-height:0%;letter-spacing:0px;word-spacing:0px;text-anchor:middle;fill:#000000;fill-opacity:1;stroke:none;font-family:ComicSpice;-inkscape-font-specification:ComicSpice"
       xml:space="preserve"
       sodipodi:linespacing="0%"><tspan
         y="216.69748"
         x="952.75238"
         style="font-size:45px;font-style:normal;font-variant:normal;font-weight:normal;font-stretch:normal;line-height:1.25;fill:#000000;font-family:ComicSpice;-inkscape-font-specification:ComicSpice"
         sodipodi:role="line"
         id="tspan17268">Ừ, Chị</tspan><tspan
         y="272.94748"
         x="952.75238"
         style="font-size:45px;font-style:normal;font-variant:normal;font-weight:normal;font-stretch:normal;line-height:1.25;fill:#000000;font-family:ComicSpice;-inkscape-font-specification:ComicSpice"
         sodipodi:role="line"
         id="tspan4279">không sao.</tspan></text>
    <text
       id="text4246-4-2-7-3-5-2"
       y="1182.4652"
       x="1034.8293"
       style="font-style:normal;font-variant:normal;font-weight:normal;font-stretch:normal;text-align:center;line-height:0%;letter-spacing:0px;word-spacing:0px;text-anchor:middle;fill:#000000;fill-opacity:1;stroke:none;font-family:ComicSpice;-inkscape-font-specification:ComicSpice"
       xml:space="preserve"
       sodipodi:linespacing="0%"><tspan
         y="1182.4652"
         x="1034.8293"
         style="font-size:45px;font-style:normal;font-variant:normal;font-weight:normal;font-stretch:normal;line-height:1.25;fill:#000000;font-family:ComicSpice;-inkscape-font-specification:ComicSpice"
         sodipodi:role="line"
         id="tspan25929">Chị mới phát</tspan><tspan
         y="1238.7152"
         x="1034.8293"
         style="font-size:45px;font-style:normal;font-variant:normal;font-weight:normal;font-stretch:normal;line-height:1.25;fill:#000000;font-family:ComicSpice;-inkscape-font-specification:ComicSpice"
         sodipodi:role="line"
         id="tspan4319">hiện một điều.</tspan></text>
    <text
       id="text4246-4-2-7-3-5-2-2"
       y="1243.312"
       x="1830.1265"
       style="font-style:normal;font-variant:normal;font-weight:normal;font-stretch:normal;text-align:center;line-height:0%;letter-spacing:0px;word-spacing:0px;text-anchor:middle;fill:#000000;fill-opacity:1;stroke:none;font-family:ComicSpice;-inkscape-font-specification:ComicSpice"
       xml:space="preserve"
       sodipodi:linespacing="0%"><tspan
         y="1243.312"
         x="1830.1265"
         style="font-size:45px;font-style:normal;font-variant:normal;font-weight:normal;font-stretch:normal;line-height:1.25;fill:#000000;font-family:ComicSpice;-inkscape-font-specification:ComicSpice"
         sodipodi:role="line"
         id="tspan4330">Mỗi thứ đã xảy ra, trực tiếp hay</tspan><tspan
         y="1299.562"
         x="1830.1265"
         style="font-size:45px;font-style:normal;font-variant:normal;font-weight:normal;font-stretch:normal;line-height:1.25;fill:#000000;font-family:ComicSpice;-inkscape-font-specification:ComicSpice"
         sodipodi:role="line"
         id="tspan4340">gián tiếp, là kết qủa từ  hành động và</tspan><tspan
         y="1355.812"
         x="1830.1265"
         style="font-size:45px;font-style:normal;font-variant:normal;font-weight:normal;font-stretch:normal;line-height:1.25;fill:#000000;font-family:ComicSpice;-inkscape-font-specification:ComicSpice"
         sodipodi:role="line"
         id="tspan4344">sự lựa chọn của chị...</tspan></text>
    <text
       id="text4246-4-2-7-3-5-2-2-6"
       y="1432.9945"
       x="1862.4454"
       style="font-style:normal;font-variant:normal;font-weight:normal;font-stretch:normal;text-align:center;line-height:0%;letter-spacing:0px;word-spacing:0px;text-anchor:middle;fill:#000000;fill-opacity:1;stroke:none;font-family:ComicSpice;-inkscape-font-specification:ComicSpice"
       xml:space="preserve"
       sodipodi:linespacing="0%"><tspan
         y="1432.9945"
         x="1862.4454"
         style="font-size:45px;font-style:normal;font-variant:normal;font-weight:normal;font-stretch:normal;line-height:1.25;fill:#000000;font-family:ComicSpice;-inkscape-font-specification:ComicSpice"
         sodipodi:role="line"
         id="tspan16620">...nói kiểu khác,</tspan><tspan
         y="1489.2445"
         x="1862.4454"
         style="font-size:45px;font-style:normal;font-variant:normal;font-weight:normal;font-stretch:normal;line-height:1.25;fill:#000000;font-family:ComicSpice;-inkscape-font-specification:ComicSpice"
         sodipodi:role="line"
         id="tspan4323">chuỗi phản ứng của chị!</tspan></text>
    <text
       id="text4246-4-2-7-3-5-2-2-6-7-2"
       y="1679.4132"
       x="256.14807"
       style="font-style:normal;font-variant:normal;font-weight:normal;font-stretch:normal;text-align:center;line-height:0%;letter-spacing:0px;word-spacing:0px;text-anchor:middle;fill:#000000;fill-opacity:1;stroke:none;font-family:ComicSpice;-inkscape-font-specification:ComicSpice"
       xml:space="preserve"
       sodipodi:linespacing="0%"><tspan
         y="1679.4132"
         x="256.14807"
         style="font-size:45px;font-style:normal;font-variant:normal;font-weight:normal;font-stretch:normal;line-height:1.25;fill:#000000;font-family:ComicSpice;-inkscape-font-specification:ComicSpice"
         sodipodi:role="line"
         id="tspan104696-2-8">Thật không?</tspan></text>
    <text
       id="text4246-4-2-7-3-5-2-2-6-7-2-9"
       y="1764.6151"
       x="378.92795"
       style="font-style:normal;font-variant:normal;font-weight:normal;font-stretch:normal;text-align:center;line-height:0%;letter-spacing:0px;word-spacing:0px;text-anchor:middle;fill:#000000;fill-opacity:1;stroke:none;font-family:ComicSpice;-inkscape-font-specification:ComicSpice"
       xml:space="preserve"
       sodipodi:linespacing="0%"><tspan
         y="1764.6151"
         x="378.92795"
         style="font-size:45px;font-style:normal;font-variant:normal;font-weight:normal;font-stretch:normal;line-height:1.25;fill:#000000;font-family:ComicSpice;-inkscape-font-specification:ComicSpice"
         sodipodi:role="line"
         id="tspan4287">Chị cần giải thích</tspan><tspan
         y="1820.8651"
         x="378.92795"
         style="font-size:45px;font-style:normal;font-variant:normal;font-weight:normal;font-stretch:normal;line-height:1.25;fill:#000000;font-family:ComicSpice;-inkscape-font-specification:ComicSpice"
         sodipodi:role="line"
         id="tspan4291">cho em nghe.</tspan></text>
    <text
       id="text4246-4-2-7-3-5-2-2-6-7-2-9-3"
       y="1676.4771"
       x="897.13013"
       style="font-style:normal;font-variant:normal;font-weight:normal;font-stretch:normal;text-align:center;line-height:0%;letter-spacing:0px;word-spacing:0px;text-anchor:middle;fill:#000000;fill-opacity:1;stroke:none;font-family:ComicSpice;-inkscape-font-specification:ComicSpice"
       xml:space="preserve"
       sodipodi:linespacing="0%"><tspan
         y="1676.4771"
         x="897.13013"
         style="font-size:45px;font-style:normal;font-variant:normal;font-weight:normal;font-stretch:normal;line-height:1.25;fill:#000000;font-family:ComicSpice;-inkscape-font-specification:ComicSpice"
         sodipodi:role="line"
         id="tspan72039">Nói chuyện đủ rồi,</tspan><tspan
         y="1732.7271"
         x="897.13013"
         style="font-size:45px;font-style:normal;font-variant:normal;font-weight:normal;font-stretch:normal;line-height:1.25;fill:#000000;font-family:ComicSpice;-inkscape-font-specification:ComicSpice"
         sodipodi:role="line"
         id="tspan4300">chúng tôi đang ở giữa</tspan><tspan
         y="1788.9771"
         x="897.13013"
         style="font-size:45px;font-style:normal;font-variant:normal;font-weight:normal;font-stretch:normal;line-height:1.25;fill:#000000;font-family:ComicSpice;-inkscape-font-specification:ComicSpice"
         sodipodi:role="line"
         id="tspan4304">một chiến trường.</tspan></text>
    <text
       id="text4246-4-2-7-3-5-2-2-6-7-2-9-3-2"
       y="1868.5121"
       x="910.66687"
       style="font-style:normal;font-variant:normal;font-weight:normal;font-stretch:normal;text-align:center;line-height:0%;letter-spacing:0px;word-spacing:0px;text-anchor:middle;fill:#000000;fill-opacity:1;stroke:none;font-family:ComicSpice;-inkscape-font-specification:ComicSpice"
       xml:space="preserve"
       sodipodi:linespacing="0%"><tspan
         y="1868.5121"
         x="910.66687"
         style="font-size:45px;font-style:normal;font-variant:normal;font-weight:normal;font-stretch:normal;line-height:1.25;fill:#000000;font-family:ComicSpice;-inkscape-font-specification:ComicSpice"
         sodipodi:role="line"
         id="tspan4312">Chị có thể kể cho mình nghe</tspan><tspan
         y="1924.7621"
         x="910.66687"
         style="font-size:45px;font-style:normal;font-variant:normal;font-weight:normal;font-stretch:normal;line-height:1.25;fill:#000000;font-family:ComicSpice;-inkscape-font-specification:ComicSpice"
         sodipodi:role="line"
         id="tspan4348">khi đang bay an toàn trên trời.</tspan></text>
    <text
       id="text4246-4-2-7-3-5-2-2-6-7-2-9-3-2-9"
       y="2008.9945"
       x="945.51813"
       style="font-style:normal;font-variant:normal;font-weight:normal;font-stretch:normal;text-align:center;line-height:0%;letter-spacing:0px;word-spacing:0px;text-anchor:middle;fill:#000000;fill-opacity:1;stroke:none;font-family:ComicSpice;-inkscape-font-specification:ComicSpice"
       xml:space="preserve"
       sodipodi:linespacing="0%"><tspan
         y="2008.9945"
         x="945.51813"
         style="font-size:45px;font-style:normal;font-variant:normal;font-weight:normal;font-stretch:normal;line-height:1.25;fill:#000000;font-family:ComicSpice;-inkscape-font-specification:ComicSpice"
         sodipodi:role="line"
         id="tspan184397-7">Leo lên Chị Hạt Tiêu!</tspan></text>
    <text
       id="text4246-4-2-7-3-5-2-2-6-7-2-9-3-2-9-8"
       y="2333.4099"
       x="1578.2986"
       style="font-style:normal;font-variant:normal;font-weight:normal;font-stretch:normal;text-align:center;line-height:0%;letter-spacing:0px;word-spacing:0px;text-anchor:middle;fill:#000000;fill-opacity:1;stroke:none;font-family:ComicSpice;-inkscape-font-specification:ComicSpice"
       xml:space="preserve"
       sodipodi:linespacing="0%"><tspan
         y="2333.4099"
         x="1578.2986"
         style="font-size:45px;font-style:normal;font-variant:normal;font-weight:normal;font-stretch:normal;line-height:1.25;fill:#000000;font-family:ComicSpice;-inkscape-font-specification:ComicSpice"
         sodipodi:role="line"
         id="tspan189870">Thổ Rễ Nha nói đúng.</tspan></text>
    <text
       id="text4246-4-2-7-3-5-2-2-6-7-2-9-3-2-9-8-3"
       y="2416.0747"
       x="1606.6317"
       style="font-style:normal;font-variant:normal;font-weight:normal;font-stretch:normal;text-align:center;line-height:0%;letter-spacing:0px;word-spacing:0px;text-anchor:middle;fill:#000000;fill-opacity:1;stroke:none;font-family:ComicSpice;-inkscape-font-specification:ComicSpice"
       xml:space="preserve"
       sodipodi:linespacing="0%"><tspan
         y="2416.0747"
         x="1606.6317"
         style="font-size:45px;font-style:normal;font-variant:normal;font-weight:normal;font-stretch:normal;line-height:1.25;fill:#000000;font-family:ComicSpice;-inkscape-font-specification:ComicSpice"
         sodipodi:role="line"
         id="tspan4269">Chúng tôi cần đi báo</tspan><tspan
         y="2472.3247"
         x="1606.6317"
         style="font-size:45px;font-style:normal;font-variant:normal;font-weight:normal;font-stretch:normal;line-height:1.25;fill:#000000;font-family:ComicSpice;-inkscape-font-specification:ComicSpice"
         sodipodi:role="line"
         id="tspan4275">cảo cho Qủa Lý Thành</tspan><tspan
         y="2528.5747"
         x="1606.6317"
         style="font-size:45px;font-style:normal;font-variant:normal;font-weight:normal;font-stretch:normal;line-height:1.25;fill:#000000;font-family:ComicSpice;-inkscape-font-specification:ComicSpice"
         sodipodi:role="line"
         id="tspan4271">ngay lập tức.</tspan></text>
    <text
       id="text4246-4-2-7-3-5-2-2-6-7-2-9-3-2-9-8-5"
       y="2464.9375"
       x="2133.2007"
       style="font-style:normal;font-variant:normal;font-weight:normal;font-stretch:normal;text-align:center;line-height:0%;letter-spacing:0px;word-spacing:0px;text-anchor:middle;fill:#000000;fill-opacity:1;stroke:none;font-family:ComicSpice;-inkscape-font-specification:ComicSpice"
       xml:space="preserve"
       sodipodi:linespacing="0%"><tspan
         y="2464.9375"
         x="2133.2007"
         style="font-size:45px;font-style:normal;font-variant:normal;font-weight:normal;font-stretch:normal;line-height:1.25;fill:#000000;font-family:ComicSpice;-inkscape-font-specification:ComicSpice"
         sodipodi:role="line"
         id="tspan106897">Chờ một</tspan><tspan
         y="2521.1875"
         x="2133.2007"
         style="font-size:45px;font-style:normal;font-variant:normal;font-weight:normal;font-stretch:normal;line-height:1.25;fill:#000000;font-family:ComicSpice;-inkscape-font-specification:ComicSpice"
         sodipodi:role="line"
         id="tspan4227">chút nhe.</tspan></text>
    <text
       id="text4246-4-2-7-3-5-2-2-6-7-2-9-3-2-9-8-5-1"
       y="2759.7256"
       x="353.28015"
       style="font-style:normal;font-variant:normal;font-weight:normal;font-stretch:normal;text-align:center;line-height:0%;letter-spacing:0px;word-spacing:0px;text-anchor:middle;fill:#000000;fill-opacity:1;stroke:none;font-family:ComicSpice;-inkscape-font-specification:ComicSpice"
       xml:space="preserve"
       sodipodi:linespacing="0%"><tspan
         y="2759.7256"
         x="353.28015"
         style="font-size:45px;font-style:normal;font-variant:normal;font-weight:normal;font-stretch:normal;line-height:1.25;fill:#000000;font-family:ComicSpice;-inkscape-font-specification:ComicSpice"
         sodipodi:role="line"
         id="tspan4243">Quân đội của Bà</tspan><tspan
         y="2815.9756"
         x="353.28015"
         style="font-size:45px;font-style:normal;font-variant:normal;font-weight:normal;font-stretch:normal;line-height:1.25;fill:#000000;font-family:ComicSpice;-inkscape-font-specification:ComicSpice"
         sodipodi:role="line"
         id="tspan4249">Cải Ngựa đang chuẩn</tspan><tspan
         y="2872.2256"
         x="353.28015"
         style="font-size:45px;font-style:normal;font-variant:normal;font-weight:normal;font-stretch:normal;line-height:1.25;fill:#000000;font-family:ComicSpice;-inkscape-font-specification:ComicSpice"
         sodipodi:role="line"
         id="tspan4245">bị tấn công lại.</tspan></text>
    <text
       id="text4246-4-2-7-3-5-2-2-6-7-2-9-3-2-9-8-5-1-3"
       y="2968.9463"
       x="356.77548"
       style="font-style:normal;font-variant:normal;font-weight:normal;font-stretch:normal;text-align:center;line-height:0%;letter-spacing:0px;word-spacing:0px;text-anchor:middle;fill:#000000;fill-opacity:1;stroke:none;font-family:ComicSpice;-inkscape-font-specification:ComicSpice"
       xml:space="preserve"
       sodipodi:linespacing="0%"><tspan
         y="2968.9463"
         x="356.77548"
         style="font-size:45px;font-style:normal;font-variant:normal;font-weight:normal;font-stretch:normal;line-height:1.25;fill:#000000;font-family:ComicSpice;-inkscape-font-specification:ComicSpice"
         sodipodi:role="line"
         id="tspan166612">Chúng tôi không</tspan><tspan
         y="3025.1963"
         x="356.77548"
         style="font-size:45px;font-style:normal;font-variant:normal;font-weight:normal;font-stretch:normal;line-height:1.25;fill:#000000;font-family:ComicSpice;-inkscape-font-specification:ComicSpice"
         sodipodi:role="line"
         id="tspan4258">thể nào cho họ giết</tspan><tspan
         y="3081.4463"
         x="356.77548"
         style="font-size:45px;font-style:normal;font-variant:normal;font-weight:normal;font-stretch:normal;line-height:1.25;fill:#000000;font-family:ComicSpice;-inkscape-font-specification:ComicSpice"
         sodipodi:role="line"
         id="tspan4262">nhau như vậy.</tspan></text>
    <text
       id="text4246-4-2-7-3-5-2-2-6-7-2-9-3-2-9-8-5-1-3-6"
       y="2739.7092"
       x="1412.0334"
       style="font-style:normal;font-variant:normal;font-weight:normal;font-stretch:normal;text-align:center;line-height:0%;letter-spacing:0px;word-spacing:0px;text-anchor:middle;fill:#000000;fill-opacity:1;stroke:none;font-family:ComicSpice;-inkscape-font-specification:ComicSpice"
       xml:space="preserve"
       sodipodi:linespacing="0%"><tspan
         y="2739.7092"
         x="1412.0334"
         style="font-size:45px;font-style:normal;font-variant:normal;font-weight:normal;font-stretch:normal;line-height:1.25;fill:#000000;font-family:ComicSpice;-inkscape-font-specification:ComicSpice"
         sodipodi:role="line"
         id="tspan179595">Chị cảm giác có</tspan><tspan
         y="2795.9592"
         x="1412.0334"
         style="font-size:45px;font-style:normal;font-variant:normal;font-weight:normal;font-stretch:normal;line-height:1.25;fill:#000000;font-family:ComicSpice;-inkscape-font-specification:ComicSpice"
         sodipodi:role="line"
         id="tspan4234">trách nhiệm phải kết thúc</tspan><tspan
         y="2852.2092"
         x="1412.0334"
         style="font-size:45px;font-style:normal;font-variant:normal;font-weight:normal;font-stretch:normal;line-height:1.25;fill:#000000;font-family:ComicSpice;-inkscape-font-specification:ComicSpice"
         sodipodi:role="line"
         id="tspan4236">cuộc chiến này.</tspan></text>
  </g>
</svg>
