<?xml version="1.0" encoding="UTF-8" standalone="no"?>
<!-- Created with Inkscape (http://www.inkscape.org/) -->

<svg
   xmlns:dc="http://purl.org/dc/elements/1.1/"
   xmlns:cc="http://creativecommons.org/ns#"
   xmlns:rdf="http://www.w3.org/1999/02/22-rdf-syntax-ns#"
   xmlns:svg="http://www.w3.org/2000/svg"
   xmlns="http://www.w3.org/2000/svg"
   xmlns:xlink="http://www.w3.org/1999/xlink"
   xmlns:sodipodi="http://sodipodi.sourceforge.net/DTD/sodipodi-0.dtd"
   xmlns:inkscape="http://www.inkscape.org/namespaces/inkscape"
   id="svg2"
   version="1.1"
   inkscape:version="0.48.5 r10040"
   width="2481"
   height="3503"
   sodipodi:docname="E36P06.svg"
   inkscape:export-filename="/Users/su_huynh/Downloads/lang 36/vi/E36P06.png"
   inkscape:export-xdpi="45"
   inkscape:export-ydpi="45">
  <metadata
     id="metadata8">
    <rdf:RDF>
      <cc:Work
         rdf:about="">
        <dc:format>image/svg+xml</dc:format>
        <dc:type
           rdf:resource="http://purl.org/dc/dcmitype/StillImage" />
        <dc:title></dc:title>
      </cc:Work>
    </rdf:RDF>
  </metadata>
  <defs
     id="defs6" />
  <sodipodi:namedview
     pagecolor="#1e1e1e"
     bordercolor="#111111"
     borderopacity="1"
     objecttolerance="10"
     gridtolerance="10"
     guidetolerance="10"
     inkscape:pageopacity="0"
     inkscape:pageshadow="2"
     inkscape:window-width="1276"
     inkscape:window-height="724"
     id="namedview4"
     showgrid="false"
     inkscape:zoom="0.19778283"
     inkscape:cx="2828.3025"
     inkscape:cy="1635.6842"
     inkscape:window-x="175"
     inkscape:window-y="0"
     inkscape:window-maximized="0"
     inkscape:current-layer="layer3"
     inkscape:pagecheckerboard="0"
     inkscape:snap-global="false" />
  <g
     inkscape:groupmode="layer"
     id="layer2"
     inkscape:label="artwork"
     sodipodi:insensitive="true">
    <image
       sodipodi:absref="/Users/su_huynh/Downloads/lang 36/vi/../gfx_Pepper-and-Carrot_by-David-Revoy_E36P06.png"
       xlink:href="../gfx_Pepper-and-Carrot_by-David-Revoy_E36P06.png"
       width="2481"
       height="3503"
       id="image10"
       x="0"
       y="0" />
  </g>
  <g
     inkscape:groupmode="layer"
     id="layer3"
     inkscape:label="speechbubbles"
     style="display:inline">
    <path
       style="color:#000000;display:inline;overflow:visible;visibility:visible;fill:#ffffff;fill-opacity:1;fill-rule:nonzero;stroke:none;stroke-width:0.825943px;marker:none;enable-background:accumulate"
       d="m 577.39062,1890.3496 c 13.55459,4.6614 27.39899,10.6876 36.98583,21.7461 6.87829,8.625 7.56098,20.6709 4.66066,30.9708 -1.44275,5.9611 -3.11819,12.8374 0.29351,18.4496 3.25292,4.4413 8.97247,5.7004 13.65335,8.0759 1.68146,0.5503 3.16657,2.0604 4.93205,2.0447 3.65441,-0.7862 8.30688,-4.5636 7.78517,-7.7805 0.4108,-14.3571 1.10006,-28.425 -3.6806,-42.3235 -4.09402,-10.8462 -16.4336,-19.4968 -27.02744,-23.2608 -13.09899,-5.2184 -27.0995,-7.7878 -41.09862,-9.0336 1.16537,0.3704 2.33073,0.7409 3.49609,1.1113 z"
       id="path4064-5-5"
       inkscape:connector-curvature="0"
       sodipodi:nodetypes="ccszccccccc" />
    <path
       style="color:#000000;fill:#ffffff;fill-opacity:1;fill-rule:nonzero;stroke:none;stroke-width:1.17569995px;marker:none;visibility:visible;display:inline;overflow:visible;enable-background:accumulate"
       d="m 458.13705,2065.9711 c -4.38138,-37.0854 9.94951,-72.8613 41.77215,-94.4911 23.78224,-16.3962 93.68656,-25.1836 123.21431,-22.9471 32.62388,1.3719 113.38907,9.853 140.43099,27.4394 23.64481,15.1532 35.07319,37.8629 40.54853,64.7652 5.95573,29.2627 0.43148,59.8463 -22.58413,79.5352 -14.24825,12.4038 -32.1799,20.7471 -51.16161,24.4628 -41.33032,8.4696 -172.77005,8.1351 -213.82264,-1.5858 -35.49949,-12.1532 -54.26185,-42.1723 -58.3976,-77.1786 z"
       id="path3365-8"
       inkscape:connector-curvature="0"
       sodipodi:nodetypes="ssscssccs" />
    <path
       style="color:#000000;fill:#ffffff;fill-opacity:1;fill-rule:nonzero;stroke:none;stroke-width:1.48513997px;marker:none;visibility:visible;display:inline;overflow:visible;enable-background:accumulate"
       d="m 1897.9568,1593.8962 c -47.3238,1.3719 -210.0397,0.3982 -241.8916,41.9175 -34.4552,44.9129 -30.4695,116.6956 7.8367,157.0601 34.1206,35.9541 194.5904,28.7098 241.273,31.4648 51.3874,3.0326 192.8727,6.2653 239.8453,-15.6626 44.4978,-20.7726 50.6077,-78.1769 43.9919,-123.0008 -6.0416,-40.9332 -35.1682,-77.0944 -78.2441,-81.9501 -42.0884,-4.7443 -170.5935,-11.0527 -212.8112,-9.8289 z"
       id="path3525-1"
       inkscape:connector-curvature="0"
       sodipodi:nodetypes="ssssssss" />
    <path
       style="color:#000000;display:inline;overflow:visible;visibility:visible;fill:#ffffff;fill-opacity:1;fill-rule:nonzero;stroke:none;stroke-width:0.844663px;marker:none;enable-background:accumulate"
       d="m 1973.1118,1889.6755 c -18.1752,-11.0216 -34.1079,-35.6909 -38.6041,-62.1813 -3.212,-15.891 -4.9491,-32.3534 -3.0603,-47.1809 2.5292,-4.9506 8.5452,-3.2093 12.36,1.2176 6.174,5.2735 12.9392,8.5628 18.8573,14.6149 3.5725,5.1778 3.8133,12.417 2.6585,17.788 -1.1636,10.2097 -2.5765,21.1708 0.8478,32.3369 4.2315,15.7365 13.9898,28.6271 24.2515,37.2817 12.3531,10.7595 26.1526,15.1864 39.0912,15.7949 0.045,0.4487 -1.409,0.4203 -1.8941,0.6592 -17.1414,4.2654 -36.4098,1.3261 -54.5078,-10.331 z"
       id="path4064-5"
       inkscape:connector-curvature="0"
       sodipodi:nodetypes="ccszc" />
    <path
       style="fill:#ffffff;stroke:none;stroke-width:1.29168"
       d="m 431.77695,2274.0147 c -60.05752,0.7266 -120.58149,0.4642 -179.85727,10.0414 -21.76904,3.5289 -43.71881,8.3841 -62.9408,18.2501 -14.84651,7.6229 -27.35833,18.84 -34.79337,32.4248 -10.10085,18.3562 -11.74386,39.6762 -7.04585,59.4484 5.93767,24.7766 22.79358,47.8461 47.50365,61.5678 18.99812,10.7258 41.51038,15.9294 63.95787,17.2676 42.26943,3.9084 84.63705,6.9938 127.06594,9.2475 29.61735,1.6133 59.2448,3.1895 88.90255,4.1063 61.11349,1.2318 122.33927,-2.4334 182.74079,-10.554 22.19547,-3.4538 44.56603,-9.8906 61.95247,-22.8016 16.23334,-12.0501 25.94404,-29.5674 30.11983,-47.5343 3.77703,-15.3575 4.80741,-31.2491 2.97672,-46.8723 -2.07965,-14.3377 -8.40133,-28.5569 -20.08023,-39.0727 -12.97089,-12.3857 -30.57429,-20.7657 -49.27042,-24.5541 -19.9215,-4.774 -40.49312,-6.8962 -60.81667,-9.9334 -62.99206,-8.176 -126.75857,-11.2963 -190.41521,-11.0315 z"
       id="path3100-2"
       inkscape:connector-curvature="0" />
    <path
       style="fill:#ffffff;stroke:none;stroke-width:1.15228"
       d="m 432.34272,2411.1355 c -57.69023,1.4255 -116.18902,1.592 -172.31646,14.9613 -22.82183,5.5849 -45.61052,16.109 -59.02389,34.6065 -18.19834,26.9283 -15.9672,62.8095 0.80947,90.1445 15.15351,24.9652 44.32323,41.749 74.99204,44.4582 40.48286,4.2758 81.13333,6.9026 121.80868,8.5905 21.04122,0.8358 42.06567,2.1318 63.10838,2.863 53.40991,1.2179 106.84794,-2.3285 159.59023,-9.5113 22.40029,-3.1885 45.3844,-8.9344 62.85774,-22.783 12.20121,-9.4092 19.94486,-22.8156 23.96101,-36.8796 5.6775,-19.3058 5.76644,-39.7754 2.73889,-59.5531 -2.9411,-15.7827 -10.99402,-32.1256 -26.59543,-40.5249 -16.71343,-9.0909 -36.47798,-10.1793 -55.04157,-13.6435 -65.0203,-10.3541 -131.08482,-13.9631 -196.88909,-12.7286 z"
       id="path3100-2-1"
       inkscape:connector-curvature="0" />
    <path
       style="fill:#ffffff;stroke:none"
       d="m 546.87882,2549.8463 c -57.2195,3.2557 -117.39143,-0.022 -170.56842,30.8316 -27.72446,18.7498 -39.97921,60.2161 -37.14451,98.0957 1.41619,49.6041 28.20624,102.4889 69.94577,108.7634 42.40651,6.6848 85.19195,9.9193 127.89109,12.4244 56.04931,2.0134 113.381,-0.3719 167.26026,-21.4517 27.3561,-13.7635 42.77805,-49.8269 44.53806,-85.4257 5.80309,-44.6192 -6.45324,-97.2272 -40.7153,-118.4303 -30.20534,-15.4717 -63.59289,-16.9512 -95.66463,-21.8202 -21.7949,-2.2685 -43.67399,-3.2354 -65.54232,-2.9872 z"
       id="path3100-2-1-9"
       inkscape:connector-curvature="0" />
    <path
       style="fill:#ffffff;fill-rule:evenodd;stroke:none;stroke-width:1px;stroke-linecap:butt;stroke-linejoin:miter;stroke-opacity:1"
       d="m 565.35803,2748.8183 c 0,0 15.49435,31.1557 18.76123,47.2541 3.26688,16.0984 -2.23396,98.2886 -54.0297,124.672 60.58129,-13.8373 97.25045,-97.2182 74.9118,-174.2445 -8.13467,-28.0492 -39.64333,2.3184 -39.64333,2.3184 z"
       id="path1357"
       inkscape:connector-curvature="0"
       sodipodi:nodetypes="cscsc" />
    <path
       style="color:#000000;fill:#ffffff;fill-opacity:1;fill-rule:nonzero;stroke:none;stroke-width:1.00343001px;marker:none;visibility:visible;display:inline;overflow:visible;enable-background:accumulate"
       d="m 1097.9491,1635.756 c -35.7609,0.6045 -72.3723,4.3995 -104.32986,16.1346 -27.39345,10.6651 -46.46987,29.6254 -56.21827,50.05 -6.82637,13.0817 -10.76079,50.6992 -3.76646,64.1591 8.63288,16.7344 30.29458,28.9004 54.06759,34.5164 38.1582,10.2477 79.6011,11.277 120.0041,12.242 43.7966,0.8028 87.7195,1.4736 131.4341,-0.987 23.8226,-1.6246 47.9496,-6.1616 67.2855,-16.3269 15.9028,-7.9573 28.9116,-19.8352 31.1101,-33.6762 3.1911,-16.3531 -3.0562,-55.7577 -12.9815,-70.516 -13.4899,-19.1109 -37.4906,-34.7044 -66.4704,-41.9152 -36.8998,-9.9634 -76.9209,-11.4507 -116.0213,-13.0247 -14.6888,-0.5358 -29.4033,-0.8984 -44.1136,-0.6561 z"
       id="path4546-6-89"
       inkscape:connector-curvature="0"
       sodipodi:nodetypes="csssscccccccc" />
    <path
       style="color:#000000;fill:#ffffff;fill-opacity:1;fill-rule:nonzero;stroke:none;stroke-width:1px;marker:none;visibility:visible;display:inline;overflow:visible;enable-background:accumulate"
       d="m 1224.676,1758.5835 c 34.2678,49.2543 68.9523,97.6924 121.3421,87.479 -53.9312,29.956 -129.2913,-39.4416 -157.7344,-79.0515 -24.1583,-33.6427 36.3923,-8.4275 36.3923,-8.4275 z"
       id="path4480-3"
       inkscape:connector-curvature="0"
       sodipodi:nodetypes="ccsc" />
    <path
       style="color:#000000;fill:#ffffff;fill-opacity:1;fill-rule:nonzero;stroke:none;stroke-width:0.95977002px;marker:none;visibility:visible;display:inline;overflow:visible;enable-background:accumulate"
       d="m 969.79932,2384.7386 c 0.77527,-41.5238 40.95468,-72.0916 151.02008,-64.8041 58.957,3.9043 125.7743,6.3303 125.3197,67.1567 -0.4548,60.8263 -96.3409,59.7186 -116.0244,61.2348 -19.6832,1.5161 -123.0821,-4.3702 -142.41723,-24.9684 -12.10333,-12.8943 -17.39805,-25.7617 -17.89815,-38.619 z"
       id="path4546-6-89-3"
       inkscape:connector-curvature="0"
       sodipodi:nodetypes="cssssc" />
    <path
       style="fill:#ffffff;stroke:none;stroke-width:0.839867"
       d="m 1191.6612,2424.9112 c 139.5256,6.2934 191.5057,18.2924 200.0502,145.4044 11.8268,175.9229 -106.4572,184.701 -270.1451,176.5139 -176.60867,-8.8335 -179.73698,-112.4756 -176.43638,-197.0237 5.69513,-145.9021 103.44558,-127.8186 246.53128,-124.8946 z"
       id="path3280-8-0"
       inkscape:connector-curvature="0"
       sodipodi:nodetypes="csssc" />
    <path
       style="color:#000000;display:inline;overflow:visible;visibility:visible;fill:#ffffff;fill-opacity:1;fill-rule:nonzero;stroke:none;stroke-width:1px;marker:none;enable-background:accumulate"
       d="m 1210.7284,2694.9039 c -14.7937,34.7302 -29.7284,103.9977 49.732,149.2666 -38.7431,-11.0789 -115.7589,-45.8618 -84.4037,-150.4179 9.0983,-30.339 16.322,-15.8945 23.6557,-14.9665 7.3338,0.9279 11.016,16.1178 11.016,16.1178 z"
       id="path4064-3"
       inkscape:connector-curvature="0"
       sodipodi:nodetypes="ccszc" />
    <path
       style="color:#000000;fill:#ffffff;fill-opacity:1;fill-rule:nonzero;stroke:none;stroke-width:0.70453298px;marker:none;visibility:visible;display:inline;overflow:visible;enable-background:accumulate"
       d="m 1665.4754,2304.8762 c 28.9335,-39.6682 78.4192,-42.2159 120.4912,-42.2394 39.61,1.0129 80.9914,3.7125 117.363,22.7913 23.4383,12.2041 39.2833,44.8101 26.1364,72.1033 -16.2171,23.4202 -45.5986,23.0482 -69.2073,29.5615 -46.5828,7.4345 -93.7244,0.6211 -140.0904,-5.5691 -21.1403,-4.6029 -47.1555,-9.8591 -55.8049,-35.6353 -4.9106,-12.5917 -7.1199,-29.5328 1.112,-41.0123 z"
       id="path3533-6"
       inkscape:connector-curvature="0" />
    <path
       style="fill:#ffffff;fill-rule:evenodd;stroke:none;stroke-width:1.38581px;stroke-linecap:butt;stroke-linejoin:miter;stroke-opacity:1"
       d="m 1854.546,2372.7244 c 38.9505,26.0497 41.6227,92.7882 26.6214,123.6319 14.1425,-16.2403 51.5149,-98.8625 -6.7766,-150.4117 -47.9683,-42.42 -26.0826,20.6575 -26.0826,20.6575 z"
       id="path4248"
       inkscape:connector-curvature="0"
       sodipodi:nodetypes="ccscc" />
    <path
       style="fill:#ffffff;stroke:none;display:inline"
       d="m 2091.7492,2367.6599 c 0.4972,-44.3595 18.8435,-84.2461 102.1896,-77.1267 83.346,7.1193 110.716,11.8987 110.8865,72.3809 0.1784,63.2975 -41.2678,78.1849 -104.3531,80.635 -65.0339,2.5256 -108.4656,-23.1978 -108.723,-75.8892 z"
       id="path3280-64"
       inkscape:connector-curvature="0"
       sodipodi:nodetypes="csssc" />
    <path
       style="color:#000000;display:inline;overflow:visible;visibility:visible;fill:#ffffff;fill-opacity:1;fill-rule:nonzero;stroke:none;stroke-width:1.00876px;marker:none;enable-background:accumulate"
       d="m 2225.6941,2499.207 c 29.3281,-35.4419 42.8909,-48.473 14.1537,-86.3903 -28.7372,-37.9162 -14.1521,-48.0944 -14.1521,-48.0944 l 30.5785,11.3041 c 0,0 63.9999,68.3303 -30.5801,123.1806 z"
       id="path3072-56"
       inkscape:connector-curvature="0"
       sodipodi:nodetypes="ccccc" />
    <path
       style="color:#000000;display:inline;overflow:visible;visibility:visible;fill:#ffffff;fill-opacity:1;fill-rule:nonzero;stroke:none;stroke-width:0.719299px;marker:none;enable-background:accumulate"
       d="m 2128.8746,2857.9175 c 16.7613,-9.9895 136.3147,-19.5563 170.2493,6.1257 28.3247,21.4363 26.5072,63.4313 0.5658,79.2151 -26.4284,16.0793 -127.1439,10.4002 -166.0708,2.6999 -36.6568,-7.2509 -35.9935,-24.7778 -34.9936,-55.3282 0.4081,-12.4682 13.4881,-22.7237 30.2493,-32.7125 z"
       id="path4040-4-5-3-6"
       inkscape:connector-curvature="0"
       sodipodi:nodetypes="zssssz" />
    <path
       style="color:#000000;fill:#ffffff;fill-opacity:1;fill-rule:nonzero;stroke:none;stroke-width:0.76561999px;marker:none;visibility:visible;display:inline;overflow:visible;enable-background:accumulate"
       d="m 2206.3996,2932.3993 c -17.729,0.6034 -35.5808,2.8489 -52.7626,10.4239 -10.1614,3.8736 -20.8288,6.2524 -29.977,15.0179 -7.654,7.1872 -14.5598,16.5512 -20.3126,27.4979 -3.4775,7.4446 -5.0681,16.8968 -5.0244,26.1957 -0.6392,14.8074 0.8207,30.5851 6.287,42.8057 5.5857,12.4857 14.2422,20.1605 23.0712,24.862 22.7785,13.4612 47.2071,16.7034 71.2482,17.3147 19.8492,0.2673 39.9239,0.3062 59.402,-6.7829 7.9308,-2.9335 15.781,-6.8639 23.1015,-12.7063 11.5549,-10.6744 18.7816,-31.7651 19.5564,-53.2266 0.8904,-18.9355 -2.7808,-38.9852 -11.2106,-52.4062 -6.8424,-10.3911 -15.9612,-15.1955 -24.795,-19.0498 -15.4066,-6.433 -30.5112,-15.2088 -46.3184,-18.7603 -4.0634,-0.8931 -8.1665,-1.2722 -12.2657,-1.1857 z"
       id="path4040-4-5-3"
       inkscape:connector-curvature="0"
       sodipodi:nodetypes="zssssz" />
    <path
       style="display:inline;fill:#ffffff;fill-rule:evenodd;stroke:none;stroke-width:1px;stroke-linecap:butt;stroke-linejoin:miter;stroke-opacity:1"
       d="m 2233.8905,2901.4843 c -59.0902,-10.6562 16.1202,-61.0715 -1.0396,-83.0609 -8.296,-10.6309 -45.3019,13.7249 -85.4552,-27.1328 44.274,25.5713 73.4492,-3.2499 94.1628,5.6982 39.3401,16.9937 6.1746,61.0235 5.4438,70.8494 -0.9776,13.1415 -13.1118,33.6461 -13.1118,33.6461 z"
       id="path4186-80"
       inkscape:connector-curvature="0"
       sodipodi:nodetypes="cscssc" />
    <path
       sodipodi:type="arc"
       style="display:inline;color:#000000;fill:#ffffff;fill-opacity:1;fill-rule:nonzero;stroke:none;stroke-width:3;marker:none;visibility:visible;overflow:visible;enable-background:accumulate"
       id="path3387"
       sodipodi:cx="1469.5674"
       sodipodi:cy="2044.8344"
       sodipodi:rx="10.134948"
       sodipodi:ry="10.134948"
       d="m 1479.7023,2044.8344 a 10.134948,10.134948 0 1 1 -20.2699,0 10.134948,10.134948 0 1 1 20.2699,0 z" />
    <path
       d="m 1479.7023,2044.8344 a 10.134948,10.134948 0 1 1 -20.2699,0 10.134948,10.134948 0 1 1 20.2699,0 z"
       sodipodi:ry="10.134948"
       sodipodi:rx="10.134948"
       sodipodi:cy="2044.8344"
       sodipodi:cx="1469.5674"
       id="path3389"
       style="display:inline;color:#000000;fill:#ffffff;fill-opacity:1;fill-rule:nonzero;stroke:none;stroke-width:3;marker:none;visibility:visible;overflow:visible;enable-background:accumulate"
       sodipodi:type="arc"
       transform="matrix(1.375,0,0,1.375,-516.88232,-770.61348)" />
    <path
       transform="matrix(1.875,0,0,1.875,-1215.9472,-1767.9397)"
       sodipodi:type="arc"
       style="color:#000000;fill:#ffffff;fill-opacity:1;fill-rule:nonzero;stroke:none;stroke-width:3;marker:none;visibility:visible;display:inline;overflow:visible;enable-background:accumulate"
       id="path3391"
       sodipodi:cx="1469.5674"
       sodipodi:cy="2044.8344"
       sodipodi:rx="10.134948"
       sodipodi:ry="10.134948"
       d="m 1479.7023,2044.8344 a 10.134948,10.134948 0 1 1 -20.2699,0 10.134948,10.134948 0 1 1 20.2699,0 z" />
    <path
       style="color:#000000;fill:#ffffff;stroke:none;stroke-width:3;marker:none;visibility:visible;display:inline;overflow:visible;enable-background:accumulate"
       d="m 1551.9139,2100.5766 c 18.0704,-11.296 29.4162,-7.8173 40.5398,8.8681 7.9065,-19.2773 19.7787,-22.9068 31.6716,-5.0675 9.3433,-3.2809 21.0494,-10.2584 21.5415,2.4642 14.1045,-20.2467 43.8131,-2.7308 41.9619,14.7732 14.4693,14.3196 9.9952,45.3235 -12.7929,39.0286 -8.1222,21.8213 -51.213,17.3785 -67.1797,1.4118 -16.574,17.2935 -47.7043,25.5422 -58.276,4.3988 -14.035,14.8803 -29.6618,14.3951 -36.7392,-5.0675 -29.7156,13.848 -46.8908,-1.0826 -44.3403,-29.138 -9.2133,-16.913 3.9731,-40.4535 26.6042,-29.138 2.6132,-23.5223 33.5684,-24.7997 34.6724,-7.9211 14.0897,-1.9135 12.4493,-1.2042 22.3367,5.3874 z"
       id="path3402"
       inkscape:connector-curvature="0"
       sodipodi:nodetypes="ccccccccccccc" />
  </g>
  <g
     inkscape:groupmode="layer"
     id="layer1"
     inkscape:label="txt"
     style="display:inline">
    <text
       id="text4246-4-2-7"
       y="2035.0352"
       x="630.4826"
       style="font-style:normal;font-variant:normal;font-weight:normal;font-stretch:normal;text-align:center;line-height:0%;letter-spacing:0px;word-spacing:0px;text-anchor:middle;fill:#000000;fill-opacity:1;stroke:none;font-family:ComicSpice;-inkscape-font-specification:ComicSpice"
       xml:space="preserve"
       sodipodi:linespacing="0%"><tspan
         y="2035.0352"
         x="630.4826"
         style="font-size:45px;line-height:1.25000000000000000;-inkscape-font-specification:ComicSpice;font-family:ComicSpice;font-weight:normal;font-style:normal;font-stretch:normal;font-variant:normal"
         sodipodi:role="line"
         id="tspan5816">Chúng tôi rất</tspan><tspan
         y="2093.9636"
         x="630.4826"
         style="font-size:45px;line-height:1.25000000000000000;-inkscape-font-specification:ComicSpice;font-family:ComicSpice;font-weight:normal;font-style:normal;font-stretch:normal;font-variant:normal"
         sodipodi:role="line"
         id="tspan8188">gần thoát...</tspan></text>
    <text
       id="text4246-4-2-7-3-2"
       y="1719.6537"
       x="1133.2744"
       style="font-style:normal;font-variant:normal;font-weight:normal;font-stretch:normal;text-align:center;line-height:0%;letter-spacing:0px;word-spacing:0px;text-anchor:middle;fill:#000000;fill-opacity:1;stroke:none;font-family:ComicSpice;-inkscape-font-specification:ComicSpice"
       xml:space="preserve"
       sodipodi:linespacing="0%"><tspan
         y="1719.6537"
         x="1137.5811"
         style="font-size:45px;font-style:normal;font-variant:normal;font-weight:normal;font-stretch:normal;line-height:1.25;font-family:ComicSpice;-inkscape-font-specification:ComicSpice"
         sodipodi:role="line"
         id="tspan11289">Ơi, rất gần thoát thật. </tspan><tspan
         y="1775.9037"
         x="1133.2744"
         style="font-size:45px;font-style:normal;font-variant:normal;font-weight:normal;font-stretch:normal;line-height:1.25;font-family:ComicSpice;-inkscape-font-specification:ComicSpice"
         sodipodi:role="line"
         id="tspan3373">Rất mệt con qúa</tspan></text>
    <text
       id="text4246-4-2-7-3"
       y="1665.5116"
       x="1922.8013"
       style="font-style:normal;font-variant:normal;font-weight:normal;font-stretch:normal;text-align:center;line-height:0%;letter-spacing:0px;word-spacing:0px;text-anchor:middle;fill:#000000;fill-opacity:1;stroke:none;font-family:ComicSpice;-inkscape-font-specification:ComicSpice"
       xml:space="preserve"
       sodipodi:linespacing="0%"><tspan
         y="1665.5116"
         x="1922.8013"
         style="font-size:45px;font-style:normal;font-variant:normal;font-weight:normal;font-stretch:normal;line-height:1.25;font-family:ComicSpice;-inkscape-font-specification:ComicSpice"
         sodipodi:role="line"
         id="tspan8201">Ề, em biết tại sao Bà Cải Ngựa</tspan><tspan
         y="1721.7616"
         x="1922.8013"
         style="font-size:45px;font-style:normal;font-variant:normal;font-weight:normal;font-stretch:normal;line-height:1.25;font-family:ComicSpice;-inkscape-font-specification:ComicSpice"
         sodipodi:role="line"
         id="tspan8203">thù hận chị không??</tspan><tspan
         y="1778.0116"
         x="1922.8013"
         style="font-size:45px;font-style:normal;font-variant:normal;font-weight:normal;font-stretch:normal;line-height:1.25;font-family:ComicSpice;-inkscape-font-specification:ComicSpice"
         sodipodi:role="line"
         id="tspan3371">Chị rất thắc mắc biết lý do.</tspan></text>
    <text
       id="text4246-4-2-7-3-6-7"
       y="2348.5913"
       x="447.81973"
       style="font-style:normal;font-variant:normal;font-weight:normal;font-stretch:normal;text-align:center;line-height:0%;letter-spacing:0px;word-spacing:0px;text-anchor:middle;fill:#000000;fill-opacity:1;stroke:none;font-family:ComicSpice;-inkscape-font-specification:ComicSpice"
       xml:space="preserve"
       sodipodi:linespacing="0%"><tspan
         y="2348.5913"
         x="452.12637"
         style="font-size:45px;font-style:normal;font-variant:normal;font-weight:normal;font-stretch:normal;line-height:1.25;fill:#000000;font-family:ComicSpice;-inkscape-font-specification:ComicSpice"
         sodipodi:role="line"
         id="tspan32649">Bà ấy sợ phù thủy của trường </tspan><tspan
         y="2404.8413"
         x="447.81973"
         style="font-size:45px;font-style:normal;font-variant:normal;font-weight:normal;font-stretch:normal;line-height:1.25;fill:#000000;font-family:ComicSpice;-inkscape-font-specification:ComicSpice"
         sodipodi:role="line"
         id="tspan8207">Châu Sa lắm, Chị Hạt Tiêu...</tspan></text>
    <text
       id="text4246-4-2-7-3-6-7-6"
       y="2489.0842"
       x="452.73358"
       style="font-style:normal;font-variant:normal;font-weight:normal;font-stretch:normal;text-align:center;line-height:0%;letter-spacing:0px;word-spacing:0px;text-anchor:middle;fill:#000000;fill-opacity:1;stroke:none;font-family:ComicSpice;-inkscape-font-specification:ComicSpice"
       xml:space="preserve"
       sodipodi:linespacing="0%"><tspan
         y="2489.0842"
         x="452.73358"
         style="font-size:45px;font-style:normal;font-variant:normal;font-weight:normal;font-stretch:normal;line-height:1.25;fill:#000000;font-family:ComicSpice;-inkscape-font-specification:ComicSpice"
         sodipodi:role="line"
         id="tspan39739">Nhiều nhất là những chuỗi</tspan><tspan
         y="2545.3342"
         x="452.73358"
         style="font-size:45px;font-style:normal;font-variant:normal;font-weight:normal;font-stretch:normal;line-height:1.25;fill:#000000;font-family:ComicSpice;-inkscape-font-specification:ComicSpice"
         sodipodi:role="line"
         id="tspan8211">phản ứng của chị.</tspan></text>
    <text
       id="text4246-4-2-7-3-6-7-6-6"
       y="2645.9121"
       x="542.9151"
       style="font-style:normal;font-variant:normal;font-weight:normal;font-stretch:normal;text-align:center;line-height:0%;letter-spacing:0px;word-spacing:0px;text-anchor:middle;fill:#000000;fill-opacity:1;stroke:none;font-family:ComicSpice;-inkscape-font-specification:ComicSpice"
       xml:space="preserve"
       sodipodi:linespacing="0%"><tspan
         y="2645.9121"
         x="542.9151"
         style="font-size:45px;font-style:normal;font-variant:normal;font-weight:normal;font-stretch:normal;line-height:1.25;fill:#000000;font-family:ComicSpice;-inkscape-font-specification:ComicSpice"
         sodipodi:role="line"
         id="tspan61804">Bà ấy tin chúng nó</tspan><tspan
         y="2702.1621"
         x="542.9151"
         style="font-size:45px;font-style:normal;font-variant:normal;font-weight:normal;font-stretch:normal;line-height:1.25;fill:#000000;font-family:ComicSpice;-inkscape-font-specification:ComicSpice"
         sodipodi:role="line"
         id="tspan8222">là một đe dọa lớn cho</tspan><tspan
         y="2758.4121"
         x="542.9151"
         style="font-size:45px;font-style:normal;font-variant:normal;font-weight:normal;font-stretch:normal;line-height:1.25;fill:#000000;font-family:ComicSpice;-inkscape-font-specification:ComicSpice"
         sodipodi:role="line"
         id="tspan8224">kế hoạch của bà ấy.</tspan></text>
    <text
       id="text4246-4-2-7-3-6-7-6-6-4"
       y="2394.4653"
       x="1119.1504"
       style="font-style:normal;font-variant:normal;font-weight:normal;font-stretch:normal;text-align:center;line-height:0%;letter-spacing:0px;word-spacing:0px;text-anchor:middle;fill:#000000;fill-opacity:1;stroke:none;font-family:ComicSpice;-inkscape-font-specification:ComicSpice"
       xml:space="preserve"
       sodipodi:linespacing="0%"><tspan
         y="2394.4653"
         x="1119.1504"
         style="font-size:45px;font-style:normal;font-variant:normal;font-weight:normal;font-stretch:normal;line-height:1.25;fill:#000000;font-family:ComicSpice;-inkscape-font-specification:ComicSpice"
         sodipodi:role="line"
         id="tspan83621-1-4">Ồ, cái đó...</tspan></text>
    <text
       id="text4246-4-2-7-3-6-7-6-6-4-5"
       y="2513.5476"
       x="1174.139"
       style="font-style:normal;font-variant:normal;font-weight:normal;font-stretch:normal;text-align:center;line-height:0%;letter-spacing:0px;word-spacing:0px;text-anchor:middle;fill:#000000;fill-opacity:1;stroke:none;font-family:ComicSpice;-inkscape-font-specification:ComicSpice"
       xml:space="preserve"
       sodipodi:linespacing="0%"><tspan
         y="2513.5476"
         x="1174.139"
         style="font-size:45px;font-style:normal;font-variant:normal;font-weight:normal;font-stretch:normal;line-height:1.25;fill:#000000;font-family:ComicSpice;-inkscape-font-specification:ComicSpice"
         sodipodi:role="line"
         id="tspan74276">Bà ấy chẳng cần lo gì</tspan><tspan
         y="2569.7976"
         x="1174.139"
         style="font-size:45px;font-style:normal;font-variant:normal;font-weight:normal;font-stretch:normal;line-height:1.25;fill:#000000;font-family:ComicSpice;-inkscape-font-specification:ComicSpice"
         sodipodi:role="line"
         id="tspan82280">từ cái đó ; chị chưa</tspan><tspan
         y="2626.0476"
         x="1174.139"
         style="font-size:45px;font-style:normal;font-variant:normal;font-weight:normal;font-stretch:normal;line-height:1.25;fill:#000000;font-family:ComicSpice;-inkscape-font-specification:ComicSpice"
         sodipodi:role="line"
         id="tspan8235">bao giờ thành công</tspan><tspan
         y="2682.2976"
         x="1174.139"
         style="font-size:45px;font-style:normal;font-variant:normal;font-weight:normal;font-stretch:normal;line-height:1.25;fill:#000000;font-family:ComicSpice;-inkscape-font-specification:ComicSpice"
         sodipodi:role="line"
         id="tspan8237">kích hoạt cái đó.</tspan></text>
    <text
       id="text4246-4-2-7-3-6-7-6-6-4-5-1"
       y="2338.7527"
       x="1802.5892"
       style="font-style:normal;font-variant:normal;font-weight:normal;font-stretch:normal;text-align:center;line-height:0%;letter-spacing:0px;word-spacing:0px;text-anchor:middle;fill:#000000;fill-opacity:1;stroke:none;font-family:ComicSpice;-inkscape-font-specification:ComicSpice"
       xml:space="preserve"
       sodipodi:linespacing="0%"><tspan
         y="2338.7527"
         x="1802.5892"
         style="font-size:45px;font-style:normal;font-variant:normal;font-weight:normal;font-stretch:normal;line-height:1.25;fill:#000000;font-family:ComicSpice;-inkscape-font-specification:ComicSpice"
         sodipodi:role="line"
         id="tspan186800-2">Thật không??</tspan></text>
    <text
       id="text4246-4-2-7-3-6-7-6-6-4-5-1-6"
       y="2351.8303"
       x="2202.064"
       style="font-size:39px;font-style:normal;font-variant:normal;font-weight:normal;font-stretch:normal;text-align:center;line-height:0%;letter-spacing:0px;word-spacing:0px;text-anchor:middle;fill:#000000;fill-opacity:1;stroke:none;font-family:ComicSpice;-inkscape-font-specification:ComicSpice"
       xml:space="preserve"
       sodipodi:linespacing="0%"><tspan
         y="2351.8303"
         x="2202.064"
         style="font-size:39px;font-style:normal;font-variant:normal;font-weight:normal;font-stretch:normal;line-height:1.25;fill:#000000;font-family:ComicSpice;-inkscape-font-specification:ComicSpice"
         sodipodi:role="line"
         id="tspan201029">Thật,</tspan><tspan
         y="2400.5803"
         x="2202.064"
         style="font-size:39px;font-style:normal;font-variant:normal;font-weight:normal;font-stretch:normal;line-height:1.25;fill:#000000;font-family:ComicSpice;-inkscape-font-specification:ComicSpice"
         sodipodi:role="line"
         id="tspan94771">hà hà hà!</tspan></text>
    <text
       id="text4246-4-2-7-3-6-7-6-6-4-5-1-6-5"
       y="2911.1982"
       x="2205.9717"
       style="font-size:42.50630188px;font-style:normal;font-variant:normal;font-weight:normal;font-stretch:normal;text-align:center;line-height:0%;letter-spacing:0px;word-spacing:0px;text-anchor:middle;fill:#000000;fill-opacity:1;stroke:none;font-family:ComicSpice;-inkscape-font-specification:ComicSpice"
       xml:space="preserve"
       sodipodi:linespacing="0%"><tspan
         y="2911.1982"
         x="2205.9717"
         style="font-size:42.50630188px;font-style:normal;font-variant:normal;font-weight:normal;font-stretch:normal;line-height:1.25;fill:#000000;font-family:ComicSpice;-inkscape-font-specification:ComicSpice"
         sodipodi:role="line"
         id="tspan201029-4">Hà-hà!</tspan></text>
    <text
       id="text4246-4-2-7-3-6-7-6-6-4-5-1-6-5-7"
       y="3002.9026"
       x="2200.3838"
       style="font-size:39px;font-style:normal;font-variant:normal;font-weight:normal;font-stretch:normal;text-align:center;line-height:0%;letter-spacing:0px;word-spacing:0px;text-anchor:middle;fill:#000000;fill-opacity:1;stroke:none;font-family:ComicSpice;-inkscape-font-specification:ComicSpice"
       xml:space="preserve"
       sodipodi:linespacing="0%"><tspan
         y="3002.9026"
         x="2200.3838"
         style="font-size:39px;font-style:normal;font-variant:normal;font-weight:normal;font-stretch:normal;line-height:1.25;fill:#000000;font-family:ComicSpice;-inkscape-font-specification:ComicSpice"
         sodipodi:role="line"
         id="tspan104571">Bà ấy qúa</tspan><tspan
         y="3051.6526"
         x="2200.3838"
         style="font-size:39px;font-style:normal;font-variant:normal;font-weight:normal;font-stretch:normal;line-height:1.25;fill:#000000;font-family:ComicSpice;-inkscape-font-specification:ComicSpice"
         sodipodi:role="line"
         id="tspan8241">lo sợ...</tspan></text>
    <text
       sodipodi:linespacing="0%"
       xml:space="preserve"
       style="font-size:30px;font-style:normal;font-variant:normal;font-weight:normal;font-stretch:normal;text-align:center;line-height:0%;letter-spacing:0px;word-spacing:0px;text-anchor:middle;fill:#000000;fill-opacity:1;stroke:none;font-family:ComicSpice;-inkscape-font-specification:ComicSpice"
       x="1579.2701"
       y="2142.1985"
       id="text3383"><tspan
         id="tspan3385"
         sodipodi:role="line"
         style="font-size:30px;font-style:normal;font-variant:normal;font-weight:normal;font-stretch:normal;line-height:1.25;fill:#000000;font-family:ComicSpice;-inkscape-font-specification:ComicSpice"
         x="1579.2701"
         y="2142.1985">Con rất xin lỗi mà</tspan></text>
  </g>
</svg>
