<?xml version="1.0" encoding="UTF-8" standalone="no"?>
<!-- Created with Inkscape (http://www.inkscape.org/) -->

<svg
   xmlns:dc="http://purl.org/dc/elements/1.1/"
   xmlns:cc="http://creativecommons.org/ns#"
   xmlns:rdf="http://www.w3.org/1999/02/22-rdf-syntax-ns#"
   xmlns:svg="http://www.w3.org/2000/svg"
   xmlns="http://www.w3.org/2000/svg"
   xmlns:xlink="http://www.w3.org/1999/xlink"
   xmlns:sodipodi="http://sodipodi.sourceforge.net/DTD/sodipodi-0.dtd"
   xmlns:inkscape="http://www.inkscape.org/namespaces/inkscape"
   id="svg2"
   version="1.1"
   inkscape:version="0.48.5 r10040"
   width="2481"
   height="3503"
   sodipodi:docname="E36P03.svg"
   inkscape:export-filename="/Users/su_huynh/Downloads/lang 36/vi/E36P03.png"
   inkscape:export-xdpi="45"
   inkscape:export-ydpi="45">
  <metadata
     id="metadata8">
    <rdf:RDF>
      <cc:Work
         rdf:about="">
        <dc:format>image/svg+xml</dc:format>
        <dc:type
           rdf:resource="http://purl.org/dc/dcmitype/StillImage" />
        <dc:title></dc:title>
      </cc:Work>
    </rdf:RDF>
  </metadata>
  <defs
     id="defs6">
    <filter
       inkscape:collect="always"
       style="color-interpolation-filters:sRGB"
       id="filter51433"
       x="-0.024257822"
       y="-0.029242994"
       width="1.0485156"
       height="1.058486">
      <feGaussianBlur
         inkscape:collect="always"
         stdDeviation="2.6637087"
         id="feGaussianBlur51435" />
    </filter>
    <filter
       x="-0.036401986"
       width="1.0703807"
       height="1.2861297"
       inkscape:label="magic-Fx-blue"
       id="filter4375-4-1-1-1-9-5-8-8-3-3-3-6-6"
       style="color-interpolation-filters:sRGB"
       y="-0.099582237">
      <feFlood
         radius="5.0999999999999996"
         result="flood"
         flood-color="rgb(86,110,161)"
         flood-opacity="1"
         id="feFlood4377-7-9-0-8-1-7-3-1-6-61-6-2-1" />
      <feComposite
         baseFrequency="0.053999999999999999 0.053999999999999999"
         result="composite1"
         operator="in"
         in="flood"
         in2="SourceGraphic"
         id="feComposite4379-3-8-8-2-77-4-1-0-7-2-7-6-8" />
      <feMorphology
         result="result3"
         radius="0.96959439099754563"
         operator="dilate"
         id="feMorphology4393-1-0-49-8-9-3-0-1-5-9-5-1-7" />
      <feComposite
         numOctaves="4"
         result="fbSourceGraphic"
         operator="over"
         in="SourceGraphic"
         in2="result3"
         id="feComposite4385-9-5-7-0-8-8-7-5-3-3-3-8-9" />
      <feColorMatrix
         id="feColorMatrix4544-9-5-1-5-7-2"
         values="0 0 0 -1 0 0 0 0 -1 0 0 0 0 -1 0 0 0 0 1 0"
         in="fbSourceGraphic"
         result="fbSourceGraphicAlpha" />
      <feTurbulence
         result="turbulence"
         baseFrequency="0.062 0.054054054054054057"
         seed="172"
         numOctaves="4.4123222748815163"
         type="fractalNoise"
         id="feTurbulence4546-3-6-9-6-9-0" />
      <feDisplacementMap
         result="fbSourceGraphic"
         xChannelSelector="R"
         yChannelSelector="G"
         scale="11.642079"
         in="fbSourceGraphic"
         in2="turbulence"
         id="feDisplacementMap4548-8-2-4-2-2-2" />
      <feColorMatrix
         scale="10.800000000000001"
         id="feColorMatrix4670-7-9-7-9-0-3"
         values="0 0 0 -1 0 0 0 0 -1 0 0 0 0 -1 0 0 0 0 1 0"
         in="fbSourceGraphic"
         result="fbSourceGraphicAlpha" />
      <feComposite
         result="composite1"
         operator="in"
         in="flood"
         in2="fbSourceGraphic"
         id="feComposite4674-8-2-4-1-2-7" />
      <feGaussianBlur
         result="blur"
         stdDeviation="1.6836129"
         in="composite1"
         id="feGaussianBlur4676-3-7-50-2-3-5" />
      <feOffset
         result="offset"
         dy="5.2374444725016502"
         dx="-0.42771311737301687"
         id="feOffset4678-6-0-3-7-7-9" />
      <feComposite
         result="composite2"
         operator="over"
         in="fbSourceGraphic"
         in2="offset"
         id="feComposite4680-4-9-6-0-5-2" />
      <feGaussianBlur
         stdDeviation="0.60935760846819198"
         id="feGaussianBlur58-9-9-2" />
      <feOffset
         dx="0"
         dy="0"
         id="feOffset60-3-2-8" />
    </filter>
  </defs>
  <sodipodi:namedview
     pagecolor="#1e1e1e"
     bordercolor="#111111"
     borderopacity="1"
     objecttolerance="10"
     gridtolerance="10"
     guidetolerance="10"
     inkscape:pageopacity="0"
     inkscape:pageshadow="2"
     inkscape:window-width="1276"
     inkscape:window-height="724"
     id="namedview4"
     showgrid="false"
     inkscape:zoom="0.25062128"
     inkscape:cx="2542.8075"
     inkscape:cy="1680.6647"
     inkscape:window-x="162"
     inkscape:window-y="0"
     inkscape:window-maximized="0"
     inkscape:current-layer="layer1"
     inkscape:pagecheckerboard="0"
     inkscape:snap-global="false" />
  <g
     inkscape:groupmode="layer"
     id="layer2"
     inkscape:label="artwork"
     sodipodi:insensitive="true">
    <image
       sodipodi:absref="/Users/su_huynh/Downloads/lang 36/vi/../gfx_Pepper-and-Carrot_by-David-Revoy_E36P03.png"
       xlink:href="../gfx_Pepper-and-Carrot_by-David-Revoy_E36P03.png"
       width="2481"
       height="3503"
       id="image10"
       x="0"
       y="0" />
  </g>
  <g
     inkscape:groupmode="layer"
     id="layer4"
     inkscape:label="speechbubble-whisper"
     style="display:inline;opacity:0.7;mix-blend-mode:screen;filter:url(#filter51433)">
    <path
       style="fill:#cdf0ff;fill-opacity:1;stroke:none;display:inline"
       d="m 1744.6209,247.57853 c -23.9715,1.03789 -48.8108,5.85058 -68.942,19.59487 -17.1183,13.96867 -22.4579,37.11996 -23.6657,58.25941 -0.8338,19.37363 1.3375,38.97655 6.595,57.63258 4.0602,12.45448 13.8303,22.25715 25.5543,27.6981 24.255,12.22174 52.0195,14.8355 78.7907,14.7642 24.6794,-0.69514 50.1616,-2.98652 72.6814,-13.92591 14.6648,-6.95996 25.9784,-20.9462 28.2348,-37.23354 3.6856,-22.6119 2.1938,-45.72284 -0.927,-68.29886 -3.2763,-18.15808 -13.2374,-36.21129 -30.2262,-44.61573 -21.6319,-11.59494 -46.8372,-12.10078 -70.73,-13.59207 -5.7854,-0.22288 -11.5757,-0.31802 -17.3653,-0.28305 z"
       id="path3280-5"
       inkscape:connector-curvature="0"
       sodipodi:nodetypes="csssc" />
    <path
       style="fill:#cdf0ff;fill-opacity:1;stroke:none;display:inline;filter:url(#filter51433)"
       d="m 1708.9863,394.91211 c -28.6289,1.41051 -57.9874,7.77024 -82.0896,23.91063 -21.878,17.61185 -28.0694,47.08568 -29.3856,73.78778 -0.819,23.28018 1.9507,46.79415 8.4069,69.17298 5.0997,15.56893 17.5867,27.59295 32.3165,34.23134 33.0998,16.06632 70.8778,18.15667 107.0647,17.36983 28.0108,-1.4647 57.9867,-5.61777 80.2927,-24.16397 18.9047,-14.83119 30.8715,-37.4229 33.57,-61.21118 3.2126,-25.33324 2.6561,-52.184 -7.2872,-76.06123 -9.8072,-23.8171 -30.4068,-43.43965 -55.8409,-49.3229 -28.3333,-6.89167 -57.997,-7.5903 -87.0475,-7.71328 z"
       id="path3280-5-2"
       inkscape:connector-curvature="0"
       sodipodi:nodetypes="csssc"
       transform="matrix(0.81903454,0,0,0.65288624,341.31937,149.97649)" />
    <path
       style="color:#000000;display:inline;overflow:visible;visibility:visible;fill:#cdf0ff;fill-opacity:1;fill-rule:nonzero;stroke:none;stroke-width:1.0259px;marker:none;enable-background:accumulate"
       d="m 1719.3194,532.89168 c 36.6025,26.98252 13.0291,94.40607 -44.5247,110.04187 25.0213,-8.11557 100.3251,-9.20388 96.6789,-117.06904 -1.8701,-55.32427 -32.7694,7.35791 -32.7694,7.35791 z"
       id="path4035-4"
       inkscape:connector-curvature="0"
       sodipodi:nodetypes="ccscc" />
    <path
       style="color:#000000;fill:#cdf0ff;fill-opacity:1;fill-rule:nonzero;stroke:none;stroke-width:0.85409802px;marker:none;visibility:visible;display:inline;overflow:visible;enable-background:accumulate"
       d="m 270.96803,2256.6925 c 29.59717,-35.192 193.71965,-29.8096 244.76844,-20.7454 55.71055,9.8917 72.86299,23.9076 75.35415,54.6269 0.7695,9.4884 -3.73677,52.5162 -31.14033,60.9868 -27.4035,8.4701 -105.87705,12.7054 -133.2806,12.7054 -27.40347,0 -114.88142,-5.391 -137.01765,-17.788 -21.17539,-11.8581 -48.28124,-54.5943 -18.68401,-89.7857 z"
       id="path3330-0"
       inkscape:connector-curvature="0"
       sodipodi:nodetypes="zsssssz" />
    <path
       style="color:#000000;fill:#cdf0ff;fill-opacity:1;fill-rule:nonzero;stroke:none;stroke-width:0.98611701px;marker:none;visibility:visible;display:inline;overflow:visible;enable-background:accumulate"
       d="m 511.87147,2388.6599 c -1.81635,-11.6604 18.09858,-60.7444 128.89781,-52.9706 110.79924,7.7738 122.37198,17.5609 127.42759,59.4131 1.86853,15.4671 -15.3739,38.0026 -31.72136,41.8889 -16.34744,3.8874 -64.14439,14.8598 -91.39004,11.7501 -27.24572,-3.1097 -67.46423,-2.3715 -107.55092,-18.6758 -24.19444,-9.8408 -23.84667,-38.2961 -25.66308,-41.4057 z"
       id="path3365-74"
       inkscape:connector-curvature="0"
       sodipodi:nodetypes="csssssc" />
    <path
       style="color:#000000;fill:#cdf0ff;fill-opacity:1;fill-rule:nonzero;stroke:none;stroke-width:0.89210999px;marker:none;visibility:visible;display:inline;overflow:visible;enable-background:accumulate"
       d="m 844.12065,2465.0384 c -0.0924,-84.1171 48.23579,-135.3357 183.69515,-121.4139 70.2676,7.2218 155.7576,15.5196 144.1498,141.7926 -10.2305,111.2931 -125.0024,94.8139 -148.2131,96.1272 -23.2111,1.3134 -143.42339,-5.0159 -163.48517,-44.2734 -12.55812,-24.575 -16.12067,-48.5604 -16.14668,-72.2325 z"
       id="path4546-6-5-3"
       inkscape:connector-curvature="0"
       sodipodi:nodetypes="ssssss" />
    <path
       style="fill:#cdf0ff;fill-opacity:1;fill-rule:evenodd;stroke:none"
       d="m 502.9297,2296.4413 c 77.73786,71.3301 343.81979,137.4338 468.03666,123.7816 56.20704,1.4325 116.43494,173.1127 -68.23077,242.6527 103.18651,-73.9231 97.76591,-172.9364 75.2135,-213.7148 -231.13158,-14.8725 -410.95516,-78.9759 -490.52973,-138.3793 -1.44988,-34.5447 15.51034,-14.3402 15.51034,-14.3402 z"
       id="path66187"
       inkscape:connector-curvature="0"
       sodipodi:nodetypes="cccccc" />
    <path
       style="color:#000000;fill:#cdf0ff;fill-opacity:1;fill-rule:nonzero;stroke:none;stroke-width:0.86374801px;marker:none;visibility:visible;display:inline;overflow:visible;enable-background:accumulate"
       d="m 1490.541,3074.7623 c -0.7851,-25.7873 3.2184,-42.8878 21.198,-56.5883 16.3678,-12.4718 52.4103,-15.9189 76.4601,-15.9189 38.8731,-0.1761 138.6581,-4.8173 126.8834,75.7445 -0.465,38.2111 -58.4508,39.8773 -70.2276,42.9714 -11.7766,3.0942 -58.8553,3.777 -69.8469,2.7457 -40.408,1.8751 -83.0635,-17.5274 -84.467,-48.9544 z"
       id="path3357-3"
       inkscape:connector-curvature="0"
       sodipodi:nodetypes="csccscc" />
    <path
       style="fill:#cdf0ff;fill-opacity:1;stroke:none;stroke-width:0.742591"
       d="m 1793.5726,3174.4599 c -12.6309,0.9948 -21.7509,-0.1689 -30.6236,-4.0923 -5.2932,-2.3406 -7.6656,-9.8926 -9.5288,-15.0858 -2.9414,-8.0739 -4.6252,-17.2277 -11.1432,-23.3655 -5.5035,-4.7753 -12.7976,-6.8331 -19.8235,-8.1246 -4.9899,-0.7939 -10.0745,-0.9258 -15.1082,-0.5301 -12.5231,-2.2362 -12.1613,-15.2606 -16.0589,-20.888 -3.2358,-4.3315 -6.0568,-1.4455 -9.6096,-5.5051 -6.9289,-7.2641 -9.6595,-1.2352 -14.3778,5.5886 -4.8023,6.9455 -3.5286,10.258 5.0592,26.7368 5.5996,11.3289 18.3851,19.618 31.2363,17.5947 3.9927,-0.6908 7.5859,-2.9978 11.7217,-3.0257 6.5594,-0.6097 13.6771,2.3908 16.7872,8.4135 4.512,6.5347 6.7951,14.4886 12.1799,20.426 2.8451,3.1564 6.8355,4.9172 10.9372,5.738 12.7279,3.2922 26.4259,1.3706 38.3521,-3.8805 z"
       id="path3023"
       inkscape:connector-curvature="0"
       sodipodi:nodetypes="csssscsssssscccc" />
  </g>
  <g
     inkscape:groupmode="layer"
     id="layer3"
     inkscape:label="speechbubbles"
     style="display:inline;mix-blend-mode:normal">
    <path
       style="color:#000000;display:inline;overflow:visible;visibility:visible;fill:#ffffff;fill-opacity:1;fill-rule:nonzero;stroke:none;stroke-width:0.617876px;marker:none;enable-background:accumulate"
       d="m 846.24295,369.92151 c 7.72209,41.35398 49.55771,207.43487 191.58005,156.97532 C 870.99201,610.00659 809.89776,366.2342 800.59804,338.37279 c -11.65313,-16.49189 45.64491,31.54872 45.64491,31.54872 z"
       id="path4008-4"
       inkscape:connector-curvature="0"
       sodipodi:nodetypes="cccc" />
    <path
       style="fill:#ffffff;fill-rule:evenodd;stroke:none;display:inline"
       d="m 1094.3305,1284.7936 c 37.9664,22.0255 59.5927,13.0685 58.941,-38.1297 18.1136,55.3264 30.6836,67.7003 38.1385,40.4407 23.9812,23.4304 38.9594,16.8577 50.8512,0 4.4324,21.6804 15.6157,17.8192 22.1638,11.8545 -1.5298,6.5168 -1.0557,15.1306 30.9987,0.8554 -1.1197,6.2852 5.7158,12.0832 27.7371,-2.311 5.705,26.3522 24.0093,-1.4609 42.7612,-31.1968 -11.6829,36.5578 -6.8384,41.7218 8.0902,27.7307 -6.8254,15.0549 -10.9077,26.7093 15.0239,1.1551 -8.8775,27.7882 14.4129,8.7147 52.0071,-31.1968 -18.8052,29.5027 -68.6722,79.2257 -35.827,75.1036 -4.5805,8.6972 -20.9188,16.2749 27.7369,30.041 -9.7296,0.4555 -45.439,3.1683 -9.9459,21.7043 -18.788,-0.4945 -11.0123,5.2669 8.7904,12.9593 -11.6897,-0.5239 -18.8587,1.3461 -8.0901,12.7092 -21.338,-0.6138 -25.3688,3.0112 -9.7031,18.251 -26.6265,-12.6946 -33.8717,-15.0016 -22.8596,9.5156 -38.7272,-26.6527 -48.0112,-29.9121 -29.948,0.3 -51.1874,-29.153 -52.675,-21.971 -71.5516,7.7521 -4.9435,-18.4869 -14.8548,-32.7173 -56.6298,-19.642 10.275,-18.5214 -14.8367,-7.1366 -32.5578,5.529 12.1111,-16.4652 -12.803,-13.6029 -47.1861,14.113 19.6985,-32.4448 -2.6744,-20.7246 -35.827,2.311 12.526,-31.874 -7.8739,-47.2883 -56.6298,-48.5287 23.3361,-11.4966 36.9444,-25.9656 12.713,-51.9939 27.3158,7.6636 35.4636,0.545 16.1798,-27.7308 29.7943,23.2085 16.248,-10.4541 4.623,-41.5958 z"
       id="path4508-2"
       inkscape:connector-curvature="0"
       sodipodi:nodetypes="cccccccccccccccccccccccccccc" />
    <path
       style="color:#000000;display:inline;overflow:visible;visibility:visible;fill:#ffffff;fill-opacity:1;fill-rule:nonzero;stroke:none;stroke-width:0.926668px;marker:none;enable-background:accumulate"
       d="m 1595.6808,1551.0393 c -26.9474,-31.2708 -59.9834,-60.3698 -79.8554,-94.1658 l -3.285,30.7651 c -15.0498,-9.9953 -21.7942,-24.8956 -31.3589,-38.1306 l -6.317,18.293 c -32.9632,-27.3415 -57.8887,-59.7803 -86.4652,-88.7225 l -7.9573,35.8506 c 38.968,18.6225 72.2495,52.1917 98.1736,81.2762 l 8.7127,-17.1146 c 10.6542,9.2624 20.8921,18.8192 29.2707,29.6888 l 8.2295,-22.5142 z"
       id="path4032-1"
       inkscape:connector-curvature="0"
       sodipodi:nodetypes="cccccccccccc" />
    <path
       style="color:#000000;fill:#ffffff;stroke:none;stroke-width:3;stroke-linecap:round;stroke-linejoin:round;stroke-miterlimit:4;stroke-opacity:1;stroke-dasharray:none;stroke-dashoffset:0;marker:none;visibility:visible;display:inline;overflow:visible;enable-background:accumulate;fill-opacity:1;fill-rule:evenodd"
       d="m 600.118,273.588 c 38.05429,32.00369 54.38092,7.78621 50.7294,-32.38047 10.40142,17.21597 14.3312,27.76342 26.98373,15.11089 29.46819,30.27182 30.22177,-17.99155 30.22177,-42.09461 7.51779,26.18491 13.85167,49.98732 32.38047,29.14242 21.36522,41.47882 27.89602,-29.96905 32.38046,-46.412 3.54115,28.31232 11.22707,67.35015 41.01526,47.49135 -9.40627,45.87531 41.64904,4.54402 57.2055,-7.55544 -13.74847,20.33662 -20.44327,36.78428 9.71414,31.30112 -6.47831,31.8342 26.58787,18.23501 45.33265,15.11088 -39.21052,28.9298 5.56985,26.0833 34.53917,30.22177 -26.06836,13.73017 -25.0167,40.72272 5.39674,52.8881 -49.43917,-17.01481 -18.71886,23.86978 -14.03153,49.65005 -20.66036,-6.06606 -39.93591,-28.52167 -39.93591,5.39675 -28.77937,-32.51614 -42.1987,-14.604 -35.61852,21.58697 -31.69781,-45.39091 -64.73513,-53.34249 -79.87182,2.1587 2.50241,-20.92266 -31.58269,-61.66366 -41.01526,-30.22177 -13.47862,-45.08415 -47.07076,1.10722 -56.12614,23.74568 3.22811,-23.11751 -3.62131,-55.53395 -24.82503,-31.30112 0.0591,-43.82493 -50.84089,8.80202 -61.52289,24.82503 25.40055,-39.55634 -6.53348,-36.31895 -34.53916,-26.98373 30.4898,-27.32855 17.34726,-44.23212 -18.34894,-53.96744 40.6418,-7.48914 35.05626,-26.26144 10.79349,-47.49136 27.27123,3.91714 42.01587,-4.47489 29.14242,-30.22177 z"
       id="path3188"
       inkscape:connector-curvature="0" />
  </g>
  <g
     inkscape:groupmode="layer"
     id="layer1"
     inkscape:label="txt"
     style="display:inline">
    <text
       id="text4246-4-2-7"
       y="320.3551"
       x="767.77734"
       style="font-style:normal;font-variant:normal;font-weight:normal;font-stretch:normal;text-align:center;line-height:0%;letter-spacing:0px;word-spacing:0px;text-anchor:middle;fill:#000000;fill-opacity:1;stroke:none;font-family:ComicSpice;-inkscape-font-specification:ComicSpice"
       xml:space="preserve"
       inkscape:label="pepperB"
       sodipodi:linespacing="0%"><tspan
         y="320.3551"
         x="767.77734"
         style="font-size:45px;font-style:normal;font-variant:normal;font-weight:normal;font-stretch:normal;line-height:1.25;font-family:ComicSpice;-inkscape-font-specification:ComicSpice"
         sodipodi:role="line"
         id="tspan4789">Sao mình</tspan><tspan
         y="376.6051"
         x="767.77734"
         style="font-size:45px;font-style:normal;font-variant:normal;font-weight:normal;font-stretch:normal;line-height:1.25;font-family:ComicSpice;-inkscape-font-specification:ComicSpice"
         sodipodi:role="line"
         id="tspan6576">khờ khạo, ngu xuẩn!</tspan></text>
    <text
       id="text4246-4-2-7-3"
       y="322.39148"
       x="1764.5796"
       style="font-style:normal;font-variant:normal;font-weight:normal;font-stretch:normal;text-align:center;line-height:0%;letter-spacing:0px;word-spacing:0px;text-anchor:middle;fill:#000000;fill-opacity:1;stroke:none;font-family:ComicSpice;-inkscape-font-specification:ComicSpice"
       xml:space="preserve"
       inkscape:label="pepperB"
       sodipodi:linespacing="0%"><tspan
         y="322.39148"
         x="1764.5796"
         style="font-size:45px;font-style:normal;font-variant:normal;font-weight:normal;font-stretch:normal;line-height:1.25;font-family:ComicSpice;-inkscape-font-specification:ComicSpice"
         sodipodi:role="line"
         id="tspan3279-7">Xiiiii,</tspan><tspan
         y="378.64148"
         x="1764.5796"
         style="font-size:45px;font-style:normal;font-variant:normal;font-weight:normal;font-stretch:normal;line-height:1.25;font-family:ComicSpice;-inkscape-font-specification:ComicSpice"
         sodipodi:role="line"
         id="tspan15762">Hạt Tiêu!</tspan></text>
    <text
       id="text4246-4-2-7-3-36"
       y="499.14197"
       x="1758.3271"
       style="font-style:normal;font-variant:normal;font-weight:normal;font-stretch:normal;text-align:center;line-height:0%;letter-spacing:0px;word-spacing:0px;text-anchor:middle;fill:#000000;fill-opacity:1;stroke:none;display:inline;font-family:ComicSpice;-inkscape-font-specification:ComicSpice"
       xml:space="preserve"
       inkscape:label="pepperB"
       sodipodi:linespacing="0%"><tspan
         y="499.14197"
         x="1758.3271"
         style="font-size:45px;font-style:normal;font-variant:normal;font-weight:normal;font-stretch:normal;line-height:1.25;font-family:ComicSpice;-inkscape-font-specification:ComicSpice"
         sodipodi:role="line"
         id="tspan26583">Im đi.</tspan></text>
    <text
       id="text4246-4-2-7-3-3"
       y="1385.4877"
       x="1248.106"
       style="font-size:55px;font-style:normal;font-variant:normal;font-weight:bold;font-stretch:normal;text-align:center;line-height:0%;letter-spacing:0px;word-spacing:0px;text-anchor:middle;fill:#000000;fill-opacity:1;stroke:none;font-family:ComicSpice;-inkscape-font-specification:ComicSpice Bold"
       xml:space="preserve"
       inkscape:label="pepperB"
       sodipodi:linespacing="0%"><tspan
         y="1385.4877"
         x="1248.106"
         style="font-size:55px;font-style:normal;font-variant:normal;font-weight:bold;font-stretch:normal;line-height:1.25000000000000000;font-family:ComicSpice;-inkscape-font-specification:ComicSpice Bold"
         sodipodi:role="line"
         id="tspan15762-9">Ai ở đó?!</tspan></text>
    <text
       id="text4246-4-2-7-3-1"
       y="2312.957"
       x="427.51743"
       style="font-style:normal;font-variant:normal;font-weight:normal;font-stretch:normal;text-align:center;line-height:0%;letter-spacing:0px;word-spacing:0px;text-anchor:middle;fill:#000000;fill-opacity:1;stroke:none;font-family:ComicSpice;-inkscape-font-specification:ComicSpice"
       xml:space="preserve"
       inkscape:label="pepperB"
       sodipodi:linespacing="0%"><tspan
         y="2312.957"
         x="427.51743"
         style="font-size:45px;font-style:normal;font-variant:normal;font-weight:normal;font-stretch:normal;line-height:1.25;font-family:ComicSpice;-inkscape-font-specification:ComicSpice"
         sodipodi:role="line"
         id="tspan15762-93">Im! Im lặng!</tspan></text>
    <text
       id="text4246-4-2-7-3-1-6"
       y="2407.6968"
       x="648.40051"
       style="font-style:normal;font-variant:normal;font-weight:normal;font-stretch:normal;text-align:center;line-height:0%;letter-spacing:0px;word-spacing:0px;text-anchor:middle;fill:#000000;fill-opacity:1;stroke:none;font-family:ComicSpice;-inkscape-font-specification:ComicSpice"
       xml:space="preserve"
       inkscape:label="pepperB"
       sodipodi:linespacing="0%"><tspan
         y="2407.6968"
         x="648.40051"
         style="font-size:45px;font-style:normal;font-variant:normal;font-weight:normal;font-stretch:normal;line-height:1.25;font-family:ComicSpice;-inkscape-font-specification:ComicSpice"
         sodipodi:role="line"
         id="tspan15762-93-0">Bên đây</tspan></text>
    <text
       id="text4246-4-2-7-3-1-6-6"
       y="2429.6001"
       x="1013.6951"
       style="font-style:normal;font-variant:normal;font-weight:normal;font-stretch:normal;text-align:center;line-height:0%;letter-spacing:0px;word-spacing:0px;text-anchor:middle;fill:#000000;fill-opacity:1;stroke:none;font-family:ComicSpice;-inkscape-font-specification:ComicSpice"
       xml:space="preserve"
       inkscape:label="pepperB"
       sodipodi:linespacing="0%"><tspan
         y="2429.6001"
         x="1013.6951"
         style="font-size:45px;font-style:normal;font-variant:normal;font-weight:normal;font-stretch:normal;line-height:1.25;font-family:ComicSpice;-inkscape-font-specification:ComicSpice"
         sodipodi:role="line"
         id="tspan53853">Em sẽ giải cứu</tspan><tspan
         y="2485.8501"
         x="1013.6951"
         style="font-size:45px;font-style:normal;font-variant:normal;font-weight:normal;font-stretch:normal;line-height:1.25;font-family:ComicSpice;-inkscape-font-specification:ComicSpice"
         sodipodi:role="line"
         id="tspan7167">chị thoát khỏi</tspan><tspan
         y="2542.1001"
         x="1013.6951"
         style="font-size:45px;font-style:normal;font-variant:normal;font-weight:normal;font-stretch:normal;line-height:1.25;font-family:ComicSpice;-inkscape-font-specification:ComicSpice"
         sodipodi:role="line"
         id="tspan7171">chỗ này.</tspan></text>
    <text
       transform="matrix(1.1333577,-0.39613562,0.12835025,1.2373956,849.39304,747.66885)"
       id="text4580-6-0-0-3-3-63"
       y="1584.5073"
       x="787.65729"
       style="font-style:normal;font-variant:normal;font-weight:normal;font-stretch:normal;line-height:0%;letter-spacing:3.03024006px;word-spacing:0px;fill:#e5fffe;fill-opacity:1;stroke:#4082aa;stroke-width:0.98834401;stroke-miterlimit:4;stroke-opacity:1;stroke-dasharray:none;filter:url(#filter4375-4-1-1-1-9-5-8-8-3-3-3-6-6);font-family:Lavi;-inkscape-font-specification:Lavi"
       xml:space="preserve"
       inkscape:label="FXC"
       sodipodi:linespacing="0%"><tspan
         style="font-size:70px;font-style:normal;font-variant:normal;font-weight:bold;font-stretch:normal;line-height:1.25;fill:#e5fffe;fill-opacity:1;stroke:#4082aa;stroke-width:0.98834401;stroke-miterlimit:4;stroke-opacity:1;stroke-dasharray:none;font-family:Drukah;-inkscape-font-specification:Drukah Bold"
         y="1584.5073"
         x="787.65729"
         id="tspan4582-1-1-0-6-9-9"
         sodipodi:role="line">Síííí...</tspan></text>
    <text
       xml:space="preserve"
       style="font-style:normal;font-variant:normal;font-weight:normal;font-stretch:normal;text-align:center;line-height:0%;letter-spacing:0px;word-spacing:0px;text-anchor:middle;fill:#000000;fill-opacity:1;stroke:none;font-family:ComicSpice;-inkscape-font-specification:ComicSpice"
       x="1601.6835"
       y="3077.9524"
       id="text4246-70-2-2-2"
       sodipodi:linespacing="0%"><tspan
         sodipodi:role="line"
         style="font-size:45px;font-style:normal;font-variant:normal;font-weight:normal;font-stretch:normal;line-height:1.25;font-family:ComicSpice;-inkscape-font-specification:ComicSpice"
         x="1601.6835"
         y="3077.9524"
         id="tspan4406-9">Thất Vị hả?</tspan></text>
  </g>
</svg>
