<?xml version="1.0" encoding="UTF-8" standalone="no"?>
<!-- Created with Inkscape (http://www.inkscape.org/) -->

<svg
   xmlns:dc="http://purl.org/dc/elements/1.1/"
   xmlns:cc="http://creativecommons.org/ns#"
   xmlns:rdf="http://www.w3.org/1999/02/22-rdf-syntax-ns#"
   xmlns:svg="http://www.w3.org/2000/svg"
   xmlns="http://www.w3.org/2000/svg"
   xmlns:xlink="http://www.w3.org/1999/xlink"
   xmlns:sodipodi="http://sodipodi.sourceforge.net/DTD/sodipodi-0.dtd"
   xmlns:inkscape="http://www.inkscape.org/namespaces/inkscape"
   id="svg2"
   version="1.1"
   inkscape:version="0.48.5 r10040"
   width="2481"
   height="3503"
   sodipodi:docname="E36P01.svg"
   inkscape:export-filename="/Users/su_huynh/Downloads/lang 2/vi/E36P01.png"
   inkscape:export-xdpi="45"
   inkscape:export-ydpi="45">
  <metadata
     id="metadata8">
    <rdf:RDF>
      <cc:Work
         rdf:about="">
        <dc:format>image/svg+xml</dc:format>
        <dc:type
           rdf:resource="http://purl.org/dc/dcmitype/StillImage" />
        <dc:title></dc:title>
      </cc:Work>
    </rdf:RDF>
  </metadata>
  <defs
     id="defs6" />
  <sodipodi:namedview
     pagecolor="#1e1e1e"
     bordercolor="#111111"
     borderopacity="1"
     objecttolerance="10"
     gridtolerance="10"
     guidetolerance="10"
     inkscape:pageopacity="0"
     inkscape:pageshadow="2"
     inkscape:window-width="1276"
     inkscape:window-height="724"
     id="namedview4"
     showgrid="false"
     inkscape:zoom="0.92009921"
     inkscape:cx="1995.5488"
     inkscape:cy="1342.6784"
     inkscape:window-x="20"
     inkscape:window-y="0"
     inkscape:window-maximized="0"
     inkscape:current-layer="layer1"
     inkscape:pagecheckerboard="0"
     inkscape:snap-global="false" />
  <g
     inkscape:groupmode="layer"
     id="layer2"
     inkscape:label="artwork"
     sodipodi:insensitive="true">
    <image
       sodipodi:absref="/Users/su_huynh/Downloads/lang 2/vi/../gfx_Pepper-and-Carrot_by-David-Revoy_E36P01.png"
       xlink:href="../gfx_Pepper-and-Carrot_by-David-Revoy_E36P01.png"
       width="2481"
       height="3503"
       id="image10"
       x="0"
       y="0" />
  </g>
  <g
     inkscape:groupmode="layer"
     id="layer3"
     inkscape:label="speechbubbles"
     style="display:inline">
    <path
       style="fill:#ffffff;fill-rule:evenodd;stroke:none;display:inline"
       d="m 1124.5327,1928.2962 c 23.0998,-26.0204 45.3707,-22.7934 51.482,13.8325 17.1421,-23.9931 25.2246,-43.6485 48.746,-10.0133 15.268,-43.5385 30.9677,-19.0982 45.0597,-5.1072 -0.5222,-28.3803 19.9831,-15.8735 35.6734,-1.0075 -4.6705,-11.0353 -26.846,-36.6989 1.6237,-31.1727 -16.0304,-16.0303 3.4989,-16.8584 19.4039,-21.7558 -31.6116,-17.2427 -9.8797,-25.2311 12.8133,-52.528 -7.3194,4.0415 -60.8112,44.1508 -54.5611,7.8402 -21.9464,17.0694 -25.0434,-5.4159 -18.8159,-22.9319 -10.346,10.346 -41.8165,48.6541 -47.0398,14.6999 -16.8042,19.2049 -24.5443,-4.5267 -29.3999,-21.1679 -5.1632,17.2107 -22.5868,56.6856 -35.6068,22.5833 -5.9631,15.2046 -16.018,8.3028 -30.5072,-22.5567 0.5213,28.5569 -16.7777,33.5528 -47.1473,21.2677 9.2989,17.3699 23.0747,27.914 -4.8738,43.1928 21.2326,8.429 8.6869,25.627 5.8277,41.3524 26.2548,-17.9915 37.0603,4.3798 24.6959,27.0479 11.0168,-14.7151 26.5935,-32.0776 22.6262,-3.5757 z"
       id="path4508-2"
       inkscape:connector-curvature="0"
       sodipodi:nodetypes="ccccccccccccccccccc" />
    <path
       style="fill:#ffffff;fill-rule:evenodd;stroke:none;display:inline"
       d="m 1444.5655,2193.5031 c -51.0468,-30.4028 -101.2389,-30.2028 -89.3265,29.7934 -49.8224,-58.8225 -46.4533,-35.1756 -56.6056,-3.3227 -44.1979,-45.8082 -63.4768,-19.7702 -73.0802,1.166 -21.5832,-47.3928 -18.1728,-66.0081 -75.0728,-10.2312 10.2598,-35.1589 -30.2187,-36.6459 -59.1362,-4.6938 -10.0224,-48.2892 -18.4212,-34.4786 -72.6225,-1.1889 34.8931,-33.6727 37.4402,-68.9967 -9.6779,-63.4528 6.4035,-10.213 41.6005,-36.6645 -28.608,-51.5482 12.9321,-7.0681 52.9636,2.3201 19.2035,-26.192 -4.5142,-3.3239 10.3604,-5.6351 -18.257,-14.1213 16.8101,0.3409 27.0747,-1.9969 11.3644,-14.9564 30.6784,0.2241 18.9586,-13.4801 -3.8693,-30.8331 44.8107,22.0121 59.5987,-20.1706 60.7521,-29.2838 56.2057,30.0883 61.297,-1.7897 68.6955,-8.3614 17.7729,40.474 58.8819,29.2968 61.9915,-3.7589 7.4856,21.3728 25.7069,28.847 19.2568,-0.8761 28.8526,55.3794 66.4039,27.0154 94.9255,15.2953 -15.1229,34.3984 36.6433,8.0198 86.6076,-26.0092 -7.1334,53.2706 28.3611,54.109 58.2079,24.4064 -26.7442,47.7885 -30.0178,71.2579 25.1169,80.1302 -54.466,17.7652 -66.6365,92.4975 -19.8657,138.0385 z"
       id="path4508-2-3"
       inkscape:connector-curvature="0"
       sodipodi:nodetypes="cccccccccccccccccccccc" />
    <path
       style="fill:#ffffff;fill-rule:evenodd;stroke:none;stroke-width:1.01927px;stroke-linecap:butt;stroke-linejoin:miter;stroke-opacity:1"
       d="m 795.85859,2075.6026 c 68.17018,-19.9402 107.76468,-24.6985 129.19825,-26.9041 -9.4626,14.6823 -10.93703,18.8605 -3.60753,19.5618 12.56737,1.2024 323.02739,-38.3324 323.02739,-38.3324 l -134.9102,-3.9965 c 0,0 -88.3447,16.493 -115.60557,20.8649 -27.26123,4.3719 -53.63946,7.3565 -53.63946,7.3565 0,0 11.08456,-17.0097 8.79652,-16.5151 -9.73596,2.1047 -32.55208,-8.0957 -153.2594,37.9649 z"
       id="path891"
       inkscape:connector-curvature="0"
       sodipodi:nodetypes="ccsccscsc" />
    <path
       style="fill:#ffffff;fill-rule:evenodd;stroke:none;display:inline"
       d="m 1109.0836,2491.3154 c 1.1827,62.7569 -9.9936,34.9347 -29.9073,19.3121 4.8997,25.4973 -13.7398,47.5269 -46.1289,11.6075 10.7675,17.7959 6.4115,33.0684 -53.14392,-19.4507 31.84862,34.085 24.56112,73.7262 -22.25034,49.9975 23.40904,21.5205 17.13804,24.8361 -3.98115,30.3589 18.62218,14.4301 62.75911,41.9254 24.47087,52.5004 55.21514,9.4652 35.40504,4.8949 6.56032,24.7632 84.26422,-22.8067 74.95192,2.8066 56.25862,28.9088 41.8083,-32.7144 43.7564,-23.0057 24.8201,20.5624 27.2392,-31.49 34.5132,-40.6024 33.9906,-4.2266 16.8468,-30.1013 38.8066,-48.797 55.1036,-14.1622 21.984,-49.7852 46.5967,-6.3705 65.2963,10.8879 4.5873,-36.9925 21.78,-46.6073 52.6128,-9.9254 3.1148,-22.3614 29.1615,-21.735 51.4916,10.2753 -27.9372,-62.8774 20.8087,-6.2663 28.9373,-2.5454 -6.789,-16.5769 24.0327,-73.7027 72.0651,12.1812 -33.1669,-76.6589 27.7828,-65.0373 54.7207,-51.5338 -39.6363,-30.2071 -28.6211,-55.224 45.088,-55.9665 -14.5875,-4.4125 -55.6869,-10.9148 -24.2259,-61.1301 -31.283,21.0185 -63.3016,-2.0583 -44.7083,-31.5198 -10.7131,11.9915 -39.0862,43.887 -37.8892,12.8998 -33.708,29.4945 -23.045,-29.426 -22.6664,-46.412 -18.5429,33.9954 -78.6011,88.9291 -74.475,18.3489 -26.9108,30.2746 -61.0986,52.3484 -58.8678,-14.3708 -7.8919,22.9027 -30.797,59.829 -46.4539,28.1446 -13.8056,42.6891 -51.1063,10.1772 -64.1101,-36.6343 -2.4674,49.8314 -25.8223,63.4351 -42.6077,17.1291 z"
       id="path4289-9"
       inkscape:connector-curvature="0"
       sodipodi:nodetypes="cccccccccccccccccccccccccccc" />
    <path
       style="display:inline;fill:#ffffff;fill-rule:evenodd;stroke:none;stroke-width:1px;stroke-linecap:butt;stroke-linejoin:miter;stroke-opacity:1"
       d="m 839.35758,2683.1542 126.85528,-18.3923 -13.09351,-16.3937 103.27445,-9.3803 -13.3725,-26.4414 -117.98262,26.0585 15.22178,19.3955 z"
       id="path4667"
       inkscape:connector-curvature="0"
       sodipodi:nodetypes="cccccccc" />
    <path
       style="color:#000000;fill:#ffffff;stroke:none;stroke-width:3;marker:none;visibility:visible;display:inline;overflow:visible;enable-background:accumulate"
       d="m 1172.197,1917.9659 c 3.528,39.3958 10.4003,59.4955 32.1562,90.6593 l 18.5428,-14.4624 c -15.8759,-21.1679 -33.6824,-42.9068 -34.8584,-85.8305 z"
       id="path3009"
       inkscape:connector-curvature="0"
       sodipodi:nodetypes="ccccc" />
    <path
       style="color:#000000;fill:#ffffff;stroke:none;stroke-width:3;marker:none;visibility:visible;display:inline;overflow:visible;enable-background:accumulate"
       d="m 1217.5056,2702.1231 c 19.3062,47.6073 -13.0149,46.3633 -42.0946,23.7457 26.2646,31.0929 -3.7286,44.512 -32.3805,36.6978 59.2046,22.3673 -24.1735,25.7415 -46.412,31.3012 31.1562,12.9843 89.5733,-7.3462 63.6816,31.4913 57.2897,-23.7066 33.699,18.8302 18.3489,57.2055 11.3892,-22.8819 46.0787,-69.745 64.7609,-32.3805 26.6418,-53.4848 46.5544,33.9818 52.8881,57.2055 -4.6527,-51.1768 25.2449,-103.1257 53.9675,-39.9359 -1.189,-21.5992 10.2237,-46.4321 23.7457,-24.825 1.9995,-36.4058 35.1715,1.5773 52.8881,17.0793 -9.0425,-24.5277 -26.9748,-43.9581 17.2695,-39.9359 -35.3767,-26.9266 34.9808,-30.8882 52.8881,-32.3804 -32.1885,-2.5881 -76.4831,-12.0235 -45.3326,-43.174 -67.5567,33.8044 -40.6453,-14.4475 -33.4598,-53.9674 -14.2109,31.9597 -61.7638,79.381 -66.9197,22.6663 -11.6447,20.5292 -24.998,22.1602 -37.7772,7.5554 -23.4496,40.5829 -45.3326,-11.5653 -43.1739,-46.412 8.482,-26.7175 -26.4319,-14.4533 -23.8752,-7.3842 28.3149,78.288 -8.9758,75.5216 -29.0129,35.4473 z"
       id="path3026"
       inkscape:connector-curvature="0"
       sodipodi:nodetypes="ccccccccccccccccccsc" />
  </g>
  <g
     inkscape:groupmode="layer"
     id="layer1"
     inkscape:label="txt"
     style="display:inline">
    <text
       xml:space="preserve"
       style="font-size:45px;font-style:normal;font-variant:normal;font-weight:bold;font-stretch:normal;text-align:center;line-height:1.25;letter-spacing:0px;word-spacing:0px;text-anchor:middle;fill:#000000;fill-opacity:1;stroke:none;font-family:ComicSpice;-inkscape-font-specification:ComicSpice Bold"
       x="1431.9003"
       y="1884.7717"
       id="text4246-3-2-2-6-3-7-9-3-3-56-9-3-20-3-3-2"
       transform="matrix(1,0,-0.12506286,1,0,0)"><tspan
         style="font-size:45px;font-style:normal;font-variant:normal;font-weight:bold;font-stretch:normal;font-family:ComicSpice;-inkscape-font-specification:ComicSpice Bold"
         sodipodi:role="line"
         x="1431.9003"
         y="1884.7717"
         id="tspan146">XIN LỖI?</tspan></text>
    <text
       id="text4246-4-2-7"
       y="2041.6934"
       x="1216.6045"
       style="font-style:normal;font-variant:normal;font-weight:normal;font-stretch:normal;text-align:center;line-height:0%;letter-spacing:0px;word-spacing:0px;text-anchor:middle;fill:#000000;fill-opacity:1;stroke:none;font-family:ComicSpice;-inkscape-font-specification:ComicSpice"
       xml:space="preserve"
       inkscape:label="pepperB"
       sodipodi:linespacing="0%"><tspan
         y="2041.6934"
         x="1216.6045"
         style="font-size:45px;font-style:normal;font-variant:normal;font-weight:normal;font-stretch:normal;line-height:1.25;font-family:ComicSpice;-inkscape-font-specification:ComicSpice"
         sodipodi:role="line"
         id="tspan6461">Mày là đồ khốn nạn!</tspan><tspan
         y="2097.9434"
         x="1216.6045"
         style="font-size:45px;font-style:normal;font-variant:normal;font-weight:normal;font-stretch:normal;line-height:1.25;font-family:ComicSpice;-inkscape-font-specification:ComicSpice"
         sodipodi:role="line"
         id="tspan3005">Mày dám làm tao mất</tspan><tspan
         y="2154.1934"
         x="1216.6045"
         style="font-size:45px;font-style:normal;font-variant:normal;font-weight:normal;font-stretch:normal;line-height:1.25;font-family:ComicSpice;-inkscape-font-specification:ComicSpice"
         sodipodi:role="line"
         id="tspan3007">mặt trước cộng đồng.</tspan></text>
    <text
       xml:space="preserve"
       style="font-size:45px;font-style:normal;font-variant:normal;font-weight:bold;font-stretch:normal;text-align:center;line-height:1.25;letter-spacing:0px;word-spacing:0px;text-anchor:middle;fill:#000000;fill-opacity:1;stroke:none;font-family:ComicSpice;-inkscape-font-specification:ComicSpice Bold"
       x="1550.9165"
       y="2582.3623"
       id="text4246-3-2-2-6-3-7-9-3-3-56-9-3-20-3-3-2-7"
       transform="matrix(1,0,-0.12506286,1,0,0)"><tspan
         style="font-size:45px;font-style:normal;font-variant:normal;font-weight:bold;font-stretch:normal;font-family:ComicSpice;-inkscape-font-specification:ComicSpice Bold"
         sodipodi:role="line"
         x="1550.9165"
         y="2582.3623"
         id="tspan14740">Mày tưởng nói một lời xin lỗi</tspan><tspan
         style="font-size:45px;font-style:normal;font-variant:normal;font-weight:bold;font-stretch:normal;font-family:ComicSpice;-inkscape-font-specification:ComicSpice Bold"
         sodipodi:role="line"
         x="1550.9165"
         y="2638.6123"
         id="tspan3011">tao sẽ thả cho mày sao!?</tspan><tspan
         style="font-size:45px;font-style:normal;font-variant:normal;font-weight:bold;font-stretch:normal;font-family:ComicSpice;-inkscape-font-specification:ComicSpice Bold"
         sodipodi:role="line"
         x="1550.9165"
         y="2694.8623"
         id="tspan6252" /></text>
    <text
       transform="matrix(1,0,-0.12506286,1,0,0)"
       id="text3013"
       y="2802.2656"
       x="1651.8137"
       style="font-size:45px;font-style:normal;font-variant:normal;font-weight:bold;font-stretch:normal;text-align:center;line-height:1.25;letter-spacing:0px;word-spacing:0px;text-anchor:middle;fill:#000000;fill-opacity:1;stroke:none;font-family:ComicSpice;-inkscape-font-specification:ComicSpice Bold"
       xml:space="preserve"><tspan
         id="tspan3019"
         y="2802.2656"
         x="1651.8137"
         sodipodi:role="line"
         style="font-size:45px;font-style:normal;font-variant:normal;font-weight:bold;font-stretch:normal;font-family:ComicSpice;-inkscape-font-specification:ComicSpice Bold">NHỐT NÓ ĐI!!!</tspan></text>
  </g>
</svg>
