<?xml version="1.0" encoding="UTF-8" standalone="no"?>
<!-- Created with Inkscape (http://www.inkscape.org/) -->

<svg
   xmlns:dc="http://purl.org/dc/elements/1.1/"
   xmlns:cc="http://creativecommons.org/ns#"
   xmlns:rdf="http://www.w3.org/1999/02/22-rdf-syntax-ns#"
   xmlns:svg="http://www.w3.org/2000/svg"
   xmlns="http://www.w3.org/2000/svg"
   xmlns:xlink="http://www.w3.org/1999/xlink"
   xmlns:sodipodi="http://sodipodi.sourceforge.net/DTD/sodipodi-0.dtd"
   xmlns:inkscape="http://www.inkscape.org/namespaces/inkscape"
   id="svg2"
   version="1.1"
   inkscape:version="0.48.5 r10040"
   width="2481"
   height="3503"
   sodipodi:docname="E36P15.svg"
   inkscape:export-filename="/Users/su_huynh/Downloads/lang 36/vi/E36P15.png"
   inkscape:export-xdpi="45"
   inkscape:export-ydpi="45">
  <metadata
     id="metadata8">
    <rdf:RDF>
      <cc:Work
         rdf:about="">
        <dc:format>image/svg+xml</dc:format>
        <dc:type
           rdf:resource="http://purl.org/dc/dcmitype/StillImage" />
        <dc:title></dc:title>
      </cc:Work>
    </rdf:RDF>
  </metadata>
  <defs
     id="defs6" />
  <sodipodi:namedview
     pagecolor="#1e1e1e"
     bordercolor="#111111"
     borderopacity="1"
     objecttolerance="10"
     gridtolerance="10"
     guidetolerance="10"
     inkscape:pageopacity="0"
     inkscape:pageshadow="2"
     inkscape:window-width="1276"
     inkscape:window-height="756"
     id="namedview4"
     showgrid="false"
     inkscape:zoom="0.63939637"
     inkscape:cx="2024.442"
     inkscape:cy="722.49975"
     inkscape:window-x="13"
     inkscape:window-y="16"
     inkscape:window-maximized="0"
     inkscape:current-layer="layer1"
     inkscape:pagecheckerboard="0"
     inkscape:snap-global="false" />
  <g
     inkscape:groupmode="layer"
     id="layer2"
     inkscape:label="artwork"
     sodipodi:insensitive="true">
    <image
       sodipodi:absref="/Users/su_huynh/Downloads/lang 36/vi/../gfx_Pepper-and-Carrot_by-David-Revoy_E36P15.png"
       xlink:href="../gfx_Pepper-and-Carrot_by-David-Revoy_E36P15.png"
       y="0"
       x="0"
       id="image10"
       height="3503"
       width="2481" />
  </g>
  <g
     inkscape:groupmode="layer"
     id="layer3"
     inkscape:label="speechbubbles"
     style="display:inline">
    <path
       sodipodi:nodetypes="zssssz"
       inkscape:connector-curvature="0"
       id="path4040-4-9-3"
       d="m 306.71173,1095.7409 c -34.16885,0.4967 -68.67021,7.4519 -99.08026,23.2978 -15.32754,8.7858 -28.67782,22.0107 -35.04213,38.6421 -5.88172,19.2331 -6.48015,40.4924 0.64285,59.4854 8.14164,20.1699 26.67434,35.5594 47.82733,40.759 19.45871,5.1853 39.75625,2.8076 59.59644,2.1517 16.29188,-0.7229 32.6367,-1.0122 48.90752,0.2808 33.08816,1.2074 66.22251,-0.7076 99.1269,-4.1379 14.94791,-1.9898 30.13004,-6.7775 41.51414,-16.9816 13.10065,-11.6681 19.67234,-29.1673 20.6051,-46.3471 1.12722,-15.5661 -1.3374,-31.9952 -10.19405,-45.1903 -8.06025,-11.8157 -20.44807,-19.5883 -32.23716,-27.2862 -17.35618,-11.0037 -36.98403,-18.9852 -57.59463,-20.9941 -26.51382,-3.3734 -53.29597,-3.4548 -79.98176,-3.6856 -1.36343,0 -2.72685,0 -4.09029,0.01 z"
       style="color:#000000;display:inline;overflow:visible;visibility:visible;fill:#ffffff;fill-opacity:1;fill-rule:nonzero;stroke:none;stroke-width:0.928823px;marker:none;enable-background:accumulate" />
    <path
       sodipodi:nodetypes="zssssz"
       inkscape:connector-curvature="0"
       id="path4040-4-9-3-0"
       d="m 1110.0895,1103.4746 c -47.9907,0.6452 -96.8773,5.7225 -142.04853,27.2362 -14.95441,7.1074 -29.00121,21.0634 -33.49466,40.8274 -5.46693,23.5475 2.98218,49.2855 17.46469,64.9858 12.85178,14.2208 29.72567,20.8677 46.083,26.1281 29.9244,8.7248 60.8098,10.0899 91.4022,11.6213 65.8099,2.5795 131.6092,-2.5414 197.2067,-8.6252 27.3411,-2.8393 55.5821,-9.1366 78.8728,-28.2133 20.9874,-19.2428 28.506,-59.0686 14.4405,-86.9357 -9.582,-19.0725 -26.6829,-30.425 -44.1338,-34.4716 -27.8931,-7.0561 -56.4792,-7.8082 -84.8284,-9.3 -34.1953,-1.5299 -68.4134,-2.1286 -102.6233,-2.9692 -12.7794,-0.2288 -25.5603,-0.3939 -38.3412,-0.2838 z"
       style="color:#000000;display:inline;overflow:visible;visibility:visible;fill:#ffffff;fill-opacity:1;fill-rule:nonzero;stroke:none;stroke-width:1.15972px;marker:none;enable-background:accumulate" />
    <path
       sodipodi:nodetypes="zssssz"
       inkscape:connector-curvature="0"
       id="path4040-4-9-3-0-9"
       d="m 1506.7015,1126.0021 c -43.8418,0.9673 -88.5288,8.1228 -126.832,26.7677 -22.7144,11.8288 -35.0051,34.5975 -34.9005,56.6266 -1.1291,26.7122 10.9462,54.5933 35.7853,71.9384 22.2129,15.1155 50.6347,21.5442 78.3368,25.4096 37.8431,4.9897 76.2337,6.1085 114.4819,6.4063 49.5338,-0.043 99.263,-2.8389 147.8842,-11.064 28.2717,-5.9919 55.8841,-18.2385 73.2923,-38.3925 18.9228,-22.3844 24.5129,-53.3168 10.6471,-78.5981 -11.9271,-22.3956 -37.7313,-38.7752 -66.3286,-43.2574 -41.708,-9.0923 -84.9938,-10.0017 -127.7427,-12.5227 -34.8162,-2.0371 -69.7143,-3.4768 -104.6238,-3.3139 z"
       style="color:#000000;display:inline;overflow:visible;visibility:visible;fill:#ffffff;fill-opacity:1;fill-rule:nonzero;stroke:none;stroke-width:1.2304px;marker:none;enable-background:accumulate" />
    <path
       style="fill:#ffffff;fill-rule:evenodd;stroke:none;stroke-width:0.943598px;stroke-linecap:butt;stroke-linejoin:miter;stroke-opacity:1"
       d="m 314.56517,1240.1318 c -36.76861,0.8784 -73.74335,-0.2682 -110.27563,4.2836 -11.63493,1.6342 -22.82182,5.7546 -32.24286,12.1291 -18.39155,12.0615 -30.61435,31.2571 -33.18006,51.5708 -2.8793,17.1735 -2.59991,34.9901 2.59353,51.7912 4.89188,13.996 15.82585,26.3832 30.47834,33.0376 16.37281,7.9949 34.90842,11.1675 53.04368,14.1763 35.02519,5.3329 70.6945,5.8753 106.12795,5.1205 25.24681,-0.7154 50.36409,-3.3031 75.57982,-4.5014 23.21971,-1.3479 46.70295,-3.6042 68.6821,-10.8702 10.58128,-3.2988 21.76268,-7.1546 29.00201,-15.2347 8.17064,-9.4543 10.44543,-21.7177 11.52311,-33.3419 1.65199,-20.0022 -0.50139,-40.3548 -7.11324,-59.5404 -2.74632,-7.5667 -6.10677,-15.1191 -11.39175,-21.5589 -7.33903,-7.8136 -18.26764,-11.842 -29.00818,-14.389 -26.32192,-7.8205 -54.29082,-8.5722 -81.73283,-9.7567 -24.01753,-1.1469 -48.01141,-3.1814 -72.08599,-2.9159 z"
       id="path4430-0"
       inkscape:connector-curvature="0"
       sodipodi:nodetypes="cccc" />
    <path
       style="fill:#ffffff;fill-rule:evenodd;stroke:none;stroke-width:0.914223px;stroke-linecap:butt;stroke-linejoin:miter;stroke-opacity:1"
       d="m 486.57288,1577.4452 c 28.81918,-66.6247 20.74358,-99.1008 19.77331,-112.4088 -16.52174,10.815 -24.86604,14.1576 -24.65914,13.2895 3.00972,-12.6265 -35.44872,-115.6984 -44.45394,-112.059 l 18.96701,-39.5995 c 16.57291,47.9099 30.322,74.2909 38.66556,123.6461 0,0 15.80065,-9.8432 23.58886,-12.9706 2.56416,11.9254 27.41455,66.0411 -31.88166,140.1023 z"
       id="path891"
       inkscape:connector-curvature="0"
       sodipodi:nodetypes="ccsccccc" />
    <path
       id="path889"
       style="fill:#ffffff;fill-rule:evenodd;stroke:none;stroke-width:1.16912px;stroke-linecap:butt;stroke-linejoin:miter;stroke-opacity:1"
       d="m 2296.3652,1086.6998 c -54.9342,0.2436 -109.8719,0.2796 -164.8075,0.4355 -47.4814,0.099 -94.9629,0.1967 -142.4444,0.2949 -8.1673,6.4832 -14.0865,15.6019 -20.1539,24.2565 -19.3139,29.8495 -29.8342,65.2908 -36.201,100.8492 -6.7034,38.6817 -8.1257,78.9054 -0.6155,117.5785 4.2281,20.312 12.697,40.3044 27.3238,54.1825 12.9632,12.7094 29.5968,20.2592 46.6373,23.5551 23.7839,5.7946 48.066,8.5965 72.2721,11.3306 39.4868,3.3678 79.1109,3.9155 118.6758,5.483 31.168,-0.1088 61.7861,-7.6681 91.8311,-16.0366 16.8167,-5.0681 33.5734,-11.4542 48.2962,-21.8456 15.7018,-13.0346 24.8256,-33.5403 28.3635,-54.356 9.3224,-43.4712 11.5811,-89.0024 4.4067,-133.0641 -3.9654,-25.6965 -10.4425,-51.2518 -21.8893,-74.2534 -7.6505,-14.6178 -18.3501,-28.4279 -33.0349,-34.7676 -5.9286,-2.5071 -12.3015,-3.7541 -18.66,-3.6425 z" />
    <path
       style="display:inline;fill:#ffffff;stroke:none;stroke-width:0.912419"
       d="m 2008.3294,1540.6989 c -33.153,-32.8759 -38.8858,-123.5948 0.3904,-163.0573 23.1728,-23.2827 35.5381,-37.608 35.5381,-37.608 l -25.8875,-19.1211 c -94.4367,86.4289 -50.0669,186.6132 -10.041,219.7864 z"
       id="path3063-1-0"
       inkscape:connector-curvature="0"
       sodipodi:nodetypes="csccc" />
    <path
       style="fill:#ffffff;fill-rule:evenodd;stroke:none;stroke-width:0.88706px;stroke-linecap:butt;stroke-linejoin:miter;stroke-opacity:1"
       d="m 1441.5434,2276.9601 c -31.9554,0.7209 -64.3381,4.937 -94.5276,19.2532 -14.3615,7.0214 -28.098,18.3438 -36.5327,35.3158 -8.1383,22.3935 -7.5314,50.2724 2.7899,71.3356 5.6848,11.7074 14.246,20.6304 23.6851,26.8936 12.9058,8.7274 27.1209,13.6364 41.3378,17.2869 23.6814,5.6417 47.8435,6.802 71.8732,6.7593 31.5305,-0.385 63.0712,-3.784 94.1394,-10.8037 19.8005,-5.4436 39.8744,-12.741 56.6533,-27.9402 8.3398,-10.8078 11.7598,-26.0628 13.8618,-40.6829 3.4463,-23.8316 -3.682,-50.3014 -19.0269,-64.7079 -10.8585,-9.7548 -23.8727,-14.134 -36.5047,-18.3647 -20.9503,-6.2869 -42.4198,-8.7888 -63.7676,-11.6675 -17.9486,-1.983 -35.9693,-2.7925 -53.981,-2.6775 z"
       id="path4430-0-7"
       inkscape:connector-curvature="0"
       sodipodi:nodetypes="cccc" />
    <path
       style="fill:#ffffff;fill-rule:evenodd;stroke:none;display:inline"
       d="m 1117.0103,2911.097 c -31.3312,1.3946 -63.5347,8.1038 -90.1088,24.8569 -19.9901,13.6091 -29.71679,37.5782 -27.77156,59.7582 0.77267,22.2704 12.24946,44.5358 32.73296,56.3873 19.4093,11.4398 42.3464,16.6276 65.0622,19.7193 33.4171,4.2026 67.8368,5.9098 101.3518,-0.7233 20.5568,-4.2368 41.2053,-11.1201 57.8322,-23.6991 10.4961,-7.8526 18.5476,-18.5318 22.2957,-30.5061 7.2831,-20.9579 7.1872,-44.391 -2.4475,-64.2618 -8.0603,-15.2862 -24.1198,-26.109 -41.9766,-29.84 -25.9989,-7.075 -53.2757,-9.2587 -80.2955,-11.3972 -12.1942,-0.6482 -24.4381,-0.7613 -36.6749,-0.2942 z"
       id="path4430-0-7-3"
       inkscape:connector-curvature="0"
       sodipodi:nodetypes="cccc" />
    <path
       style="color:#000000;display:inline;overflow:visible;visibility:visible;fill:#ffffff;fill-opacity:1;fill-rule:nonzero;stroke:none;stroke-width:0.933879px;marker:none;enable-background:accumulate"
       d="m 1510.6073,2424.7097 c 95.8683,30.7313 27.8183,159.8015 -2.9543,189.2123 50.4373,-43.5579 100.0481,-123.5802 33.0541,-217.2104 -31.2156,-43.6267 -19.8493,18.5629 -19.8493,18.5629 z"
       id="path4035-4"
       inkscape:connector-curvature="0"
       sodipodi:nodetypes="ccscc" />
    <path
       style="color:#000000;display:inline;overflow:visible;visibility:visible;fill:#ffffff;fill-opacity:1;fill-rule:nonzero;stroke:none;stroke-width:1.2864px;marker:none;enable-background:accumulate"
       d="m 1061.1341,2128.284 c -58.604,1.1522 -117.35006,1.5229 -175.49588,5.682 -34.34189,2.9059 -69.0228,8.6127 -98.43102,27.5924 -20.80093,13.916 -38.95456,35.5444 -45.76491,65.2808 -4.22781,19.071 -1.47676,41.5411 7.39961,60.7881 10.47129,23.6547 29.26286,42.5269 49.4506,48.4915 26.44238,9.8812 53.14005,12.0348 79.69511,17.8358 84.31716,13.9176 167.26739,9.9174 249.55059,5.2376 31.9858,-2.0532 64.3077,-4.555 93.9504,-16.2353 20.5262,-8.6602 39.9,-23.8341 49.2978,-48.7552 12.815,-35.521 2.2395,-86.84 -25.85,-115.5798 -21.3717,-21.7001 -47.43,-30.6961 -72.2566,-37.6358 -37.3531,-9.8339 -74.7614,-12.9693 -111.5457,-12.7021 z"
       id="path4546-6-5-5"
       inkscape:connector-curvature="0"
       sodipodi:nodetypes="cssssc" />
    <path
       style="color:#000000;display:inline;overflow:visible;visibility:visible;fill:#ffffff;fill-opacity:1;fill-rule:nonzero;stroke:none;stroke-width:0.511885px;marker:none;enable-background:accumulate"
       d="m 1198.7358,2292.3553 c -58.4517,90.8359 85.6046,288.3485 132.7428,310.3129 -51.7175,-3.6213 -215.024,-222.6528 -167.3541,-289.5926 16.3894,-23.014 93.063,-111.5562 34.6113,-20.7203 z"
       id="path4480-6"
       inkscape:connector-curvature="0"
       sodipodi:nodetypes="zcsz" />
    <path
       style="fill:#ffffff;stroke:none;stroke-width:1.22863"
       d="m 1132.3337,2836.1319 c 6.9881,13.1882 16.9513,18.3851 13.6567,35.0595 -18.6808,32.3624 -3.398,71.476 20.2436,84.4218 3.4934,10.3144 -10.2432,41.0229 -10.2432,41.0229 -31.6711,-50.3948 -47.4892,-83.1315 -25.5958,-126.3842 3.8504,-6.927 -8.3872,-14.7062 -12.2361,-26.3855 -3.8491,-11.6793 -4.7084,-20.1125 -0.097,-40.9935 3.9527,-17.898 39.9891,-41.3608 39.9891,-41.3608 -27.433,31.2471 -35.5926,52.7621 -25.7173,74.6198 z"
       id="path3023-4"
       inkscape:connector-curvature="0"
       sodipodi:nodetypes="cccccsscc" />
    <path
       style="color:#000000;display:inline;overflow:visible;visibility:visible;fill:#ffffff;fill-opacity:1;fill-rule:nonzero;stroke:none;stroke-width:1.24837px;marker:none;enable-background:accumulate"
       d="m 1380.3027,1450.8419 c 65.8497,-28.0462 78.4621,-86.1375 90.2102,-126.6975 16.6063,-57.3342 1.8435,-63.2522 1.8435,-63.2522 l 29.8886,-4.9473 c 11.5377,-2.8141 4.798,161.6465 -121.9423,194.897 z"
       id="path3072-1-3"
       inkscape:connector-curvature="0"
       sodipodi:nodetypes="csccc" />
  </g>
  <g
     inkscape:groupmode="layer"
     id="layer1"
     inkscape:label="txt"
     style="display:inline">
    <text
       id="text4246-4-2-7"
       y="1168.6454"
       x="326.61557"
       style="font-style:normal;font-variant:normal;font-weight:normal;font-stretch:normal;text-align:center;line-height:0%;letter-spacing:0px;word-spacing:0px;text-anchor:middle;fill:#000000;fill-opacity:1;stroke:none;font-family:ComicSpice;-inkscape-font-specification:ComicSpice"
       xml:space="preserve"
       sodipodi:linespacing="0%"><tspan
         y="1168.6454"
         x="326.61557"
         style="font-size:45px;font-style:normal;font-variant:normal;font-weight:normal;font-stretch:normal;line-height:1.25;font-family:ComicSpice;-inkscape-font-specification:ComicSpice"
         sodipodi:role="line"
         id="tspan6345">Những cái gì</tspan><tspan
         y="1224.8954"
         x="326.61557"
         style="font-size:45px;font-style:normal;font-variant:normal;font-weight:normal;font-stretch:normal;line-height:1.25;font-family:ComicSpice;-inkscape-font-specification:ComicSpice"
         sodipodi:role="line"
         id="tspan5702">đang xảy ra?</tspan></text>
    <text
       id="text4246-4-2-7-3"
       y="1307.0507"
       x="330.63736"
       style="font-style:normal;font-variant:normal;font-weight:bold;font-stretch:normal;text-align:center;line-height:0%;letter-spacing:0px;word-spacing:0px;text-anchor:middle;fill:#000000;fill-opacity:1;stroke:none;font-family:ComicSpice;-inkscape-font-specification:ComicSpice Bold"
       xml:space="preserve"
       sodipodi:linespacing="0%"><tspan
         y="1307.0507"
         x="330.63736"
         style="font-size:45px;font-style:normal;font-variant:normal;font-weight:bold;font-stretch:normal;line-height:1.25;font-family:ComicSpice;-inkscape-font-specification:ComicSpice Bold"
         sodipodi:role="line"
         id="tspan13938">Vài người đang</tspan><tspan
         y="1363.3007"
         x="330.63736"
         style="font-size:45px;font-style:normal;font-variant:normal;font-weight:bold;font-stretch:normal;line-height:1.25;font-family:ComicSpice;-inkscape-font-specification:ComicSpice Bold"
         sodipodi:role="line"
         id="tspan5706">hôn nhau...?!</tspan></text>
    <text
       id="text4246-4-2-7-3-6"
       y="1176.2039"
       x="1154.6746"
       style="font-style:normal;font-variant:normal;font-weight:normal;font-stretch:normal;text-align:center;line-height:0%;letter-spacing:0px;word-spacing:0px;text-anchor:middle;fill:#000000;fill-opacity:1;stroke:none;font-family:ComicSpice;-inkscape-font-specification:ComicSpice"
       xml:space="preserve"
       sodipodi:linespacing="0%"><tspan
         y="1176.2039"
         x="1154.6746"
         style="font-size:45px;font-style:normal;font-variant:normal;font-weight:normal;font-stretch:normal;line-height:1.25;font-family:ComicSpice;-inkscape-font-specification:ComicSpice"
         sodipodi:role="line"
         id="tspan31052">Ủi... Rất nhiều</tspan><tspan
         y="1232.4539"
         x="1154.6746"
         style="font-size:45px;font-style:normal;font-variant:normal;font-weight:normal;font-stretch:normal;line-height:1.25;font-family:ComicSpice;-inkscape-font-specification:ComicSpice"
         sodipodi:role="line"
         id="tspan5710">cặp tình yêu mới!</tspan></text>
    <text
       id="text4246-4-2-7-3-6-3"
       y="1207.6427"
       x="1581.8838"
       style="font-style:normal;font-variant:normal;font-weight:normal;font-stretch:normal;text-align:center;line-height:0%;letter-spacing:0px;word-spacing:0px;text-anchor:middle;fill:#000000;fill-opacity:1;stroke:none;font-family:ComicSpice;-inkscape-font-specification:ComicSpice"
       xml:space="preserve"
       sodipodi:linespacing="0%"><tspan
         y="1207.6427"
         x="1581.8838"
         style="font-size:45px;font-style:normal;font-variant:normal;font-weight:normal;font-stretch:normal;line-height:1.25;font-family:ComicSpice;-inkscape-font-specification:ComicSpice"
         sodipodi:role="line"
         id="tspan44730">Chị Hạt Tiêu cố tinh</tspan><tspan
         y="1263.8927"
         x="1581.8838"
         style="font-size:45px;font-style:normal;font-variant:normal;font-weight:normal;font-stretch:normal;line-height:1.25;font-family:ComicSpice;-inkscape-font-specification:ComicSpice"
         sodipodi:role="line"
         id="tspan5733">làm như vậy hay không?</tspan></text>
    <text
       id="text4246-4-2-7-3-6-3-6"
       y="1144.2382"
       x="2152.9924"
       style="font-style:normal;font-variant:normal;font-weight:normal;font-stretch:normal;text-align:center;line-height:0%;letter-spacing:0px;word-spacing:0px;text-anchor:middle;fill:#000000;fill-opacity:1;stroke:none;font-family:ComicSpice;-inkscape-font-specification:ComicSpice"
       xml:space="preserve"
       sodipodi:linespacing="0%"><tspan
         y="1144.2382"
         x="2157.2991"
         style="font-size:45px;font-style:normal;font-variant:normal;font-weight:normal;font-stretch:normal;line-height:1.25;font-family:ComicSpice;-inkscape-font-specification:ComicSpice"
         sodipodi:role="line"
         id="tspan61898">Thật không! </tspan><tspan
         y="1200.4882"
         x="2152.9924"
         style="font-size:45px;font-style:normal;font-variant:normal;font-weight:normal;font-stretch:normal;line-height:1.25;font-family:ComicSpice;-inkscape-font-specification:ComicSpice"
         sodipodi:role="line"
         id="tspan97452">Chị nghĩ là sức lực của</tspan><tspan
         y="1256.7382"
         x="2152.9924"
         style="font-size:45px;font-style:normal;font-variant:normal;font-weight:normal;font-stretch:normal;line-height:1.25;font-family:ComicSpice;-inkscape-font-specification:ComicSpice"
         sodipodi:role="line"
         id="tspan5725">con rồng tăng cường</tspan><tspan
         y="1312.9882"
         x="2152.9924"
         style="font-size:45px;font-style:normal;font-variant:normal;font-weight:normal;font-stretch:normal;line-height:1.25;font-family:ComicSpice;-inkscape-font-specification:ComicSpice"
         sodipodi:role="line"
         id="tspan5723">độ tình yêu trong bài</tspan><tspan
         y="1369.2382"
         x="2152.9924"
         style="font-size:45px;font-style:normal;font-variant:normal;font-weight:normal;font-stretch:normal;line-height:1.25;font-family:ComicSpice;-inkscape-font-specification:ComicSpice"
         sodipodi:role="line"
         id="tspan5721">phép thuật của chị.</tspan></text>
    <text
       id="text4246-4-2-7-3-6-3-6-1"
       y="2207.3054"
       x="1012.6952"
       style="font-style:normal;font-variant:normal;font-weight:normal;font-stretch:normal;text-align:center;line-height:0%;letter-spacing:0px;word-spacing:0px;text-anchor:middle;fill:#000000;fill-opacity:1;stroke:none;font-family:ComicSpice;-inkscape-font-specification:ComicSpice"
       xml:space="preserve"
       sodipodi:linespacing="0%"><tspan
         y="2207.3054"
         x="1012.6952"
         style="font-size:45px;font-style:normal;font-variant:normal;font-weight:normal;font-stretch:normal;line-height:1.25;font-family:ComicSpice;-inkscape-font-specification:ComicSpice"
         sodipodi:role="line"
         id="tspan109377">Hà hà, cuộc chiến này</tspan><tspan
         y="2263.5554"
         x="1012.6952"
         style="font-size:45px;font-style:normal;font-variant:normal;font-weight:normal;font-stretch:normal;line-height:1.25;font-family:ComicSpice;-inkscape-font-specification:ComicSpice"
         sodipodi:role="line"
         id="tspan5740">sẽ được ghi trực tiếp vào</tspan><tspan
         y="2319.8054"
         x="1012.6952"
         style="font-size:45px;font-style:normal;font-variant:normal;font-weight:normal;font-stretch:normal;line-height:1.25;font-family:ComicSpice;-inkscape-font-specification:ComicSpice"
         sodipodi:role="line"
         id="tspan5742">các cuốn sách lịch sử.</tspan></text>
    <text
       id="text4246-4-2-7-3-6-3-6-1-3"
       y="2346.5227"
       x="1457.3495"
       style="font-style:normal;font-variant:normal;font-weight:normal;font-stretch:normal;text-align:center;line-height:0%;letter-spacing:0px;word-spacing:0px;text-anchor:middle;fill:#000000;fill-opacity:1;stroke:none;font-family:ComicSpice;-inkscape-font-specification:ComicSpice"
       xml:space="preserve"
       sodipodi:linespacing="0%"><tspan
         y="2346.5227"
         x="1457.3495"
         style="font-size:45px;font-style:normal;font-variant:normal;font-weight:normal;font-stretch:normal;line-height:1.25;font-family:ComicSpice;-inkscape-font-specification:ComicSpice"
         sodipodi:role="line"
         id="tspan83228-9">Hỉ, hỉ,</tspan></text>
    <text
       id="text4246-4-2-7-3-6-3-6-1-3-2"
       y="2401.8772"
       x="1461.7375"
       style="font-style:normal;font-variant:normal;font-weight:normal;font-stretch:normal;text-align:center;line-height:0%;letter-spacing:0px;word-spacing:0px;text-anchor:middle;fill:#000000;fill-opacity:1;stroke:none;font-family:ComicSpice;-inkscape-font-specification:ComicSpice"
       xml:space="preserve"
       sodipodi:linespacing="0%"><tspan
         y="2401.8772"
         x="1461.7375"
         style="font-size:45px;font-style:normal;font-variant:normal;font-weight:normal;font-stretch:normal;line-height:1.25;font-family:ComicSpice;-inkscape-font-specification:ComicSpice"
         sodipodi:role="line"
         id="tspan83228-9-2">Nhất định!</tspan></text>
    <text
       id="text4246-4-2-7-3-6-3-6-1-3-2-8"
       y="2974.0247"
       x="1141.675"
       style="font-size:42px;font-style:normal;font-variant:normal;font-weight:normal;font-stretch:normal;text-align:center;line-height:0%;letter-spacing:0px;word-spacing:0px;text-anchor:middle;fill:#000000;fill-opacity:1;stroke:none;font-family:ComicSpice;-inkscape-font-specification:ComicSpice"
       xml:space="preserve"
       sodipodi:linespacing="0%"><tspan
         y="2974.0247"
         x="1141.675"
         style="font-size:42px;font-style:normal;font-variant:normal;font-weight:normal;font-stretch:normal;line-height:1.25;font-family:ComicSpice;-inkscape-font-specification:ComicSpice"
         sodipodi:role="line"
         id="tspan130424">Úúúú, xấu hổ</tspan><tspan
         y="3026.5247"
         x="1141.675"
         style="font-size:42px;font-style:normal;font-variant:normal;font-weight:normal;font-stretch:normal;line-height:1.25;font-family:ComicSpice;-inkscape-font-specification:ComicSpice"
         sodipodi:role="line"
         id="tspan5746">qúa nhe!</tspan></text>
    <text
       transform="matrix(0.85852879,0,-0.29243083,1.1647833,0,0)"
       id="text4213-7"
       y="2982.4719"
       x="2454.0139"
       style="font-size:10.76309967px;font-style:normal;font-variant:normal;font-weight:bold;font-stretch:normal;text-align:center;line-height:0%;letter-spacing:0px;word-spacing:0px;text-anchor:middle;fill:#d97041;fill-opacity:1;stroke:#000000;stroke-width:0;stroke-miterlimit:4;stroke-opacity:1;stroke-dasharray:none;display:inline;font-family:ComicSpice;-inkscape-font-specification:ComicSpice Bold"
       xml:space="preserve"
       sodipodi:linespacing="0%"><tspan
         style="font-size:64.74079895px;font-style:normal;font-variant:normal;font-weight:bold;font-stretch:normal;line-height:1.25;fill:#d97041;fill-opacity:1;stroke:none;font-family:ComicSpice;-inkscape-font-specification:ComicSpice Bold"
         y="2982.4719"
         x="2454.0139"
         id="tspan3562-5"
         sodipodi:role="line">- HẾT -</tspan></text>
    <path
       style="color:#000000;fill:#ffffff;stroke:none;stroke-width:3;marker:none;visibility:visible;display:inline;overflow:visible;enable-background:accumulate"
       d="m 1649.2292,1820.991 c 6.3782,-22.4101 73.6604,-29.0864 79.9006,-3.0731 7.0979,-23.6106 30.3227,-13.6849 32.7797,1.0244 13.0336,-21.9921 63.5108,-29.7584 63.5108,10.2437 17.803,-9.2931 31.9543,3.0583 25.6091,18.4386 30.6706,0.5414 37.1209,41.7552 15.3655,63.5106 23.9869,33.7986 -13.0297,75.8031 -36.8772,57.3645 -9.2309,21.8646 -25.5327,19.3835 -49.1696,12.2924 -23.0224,16.3266 -33.8714,-2.6743 -47.1208,-8.1949 -23.4486,30.3356 -59.735,14.2353 -77.8518,-6.1462 -23.1681,20.0409 -39.393,20.2462 -55.3158,2.0487 -23.2629,10.4835 -33.6719,-4.5128 -29.7066,-20.4873 -39.5428,3.1445 -43.4745,-47.5668 -6.1462,-59.4132 -24.4456,-10.9031 -16.3932,-39.5393 1.0244,-39.9503 -6.264,-26.7395 25.7204,-51.3787 47.1208,-25.6091 0.1965,-14.4966 29.9769,-35.1049 36.8771,-2.0488 z"
       id="path5533"
       inkscape:connector-curvature="0"
       sodipodi:nodetypes="cccccccccccccccc" />
    <text
       xml:space="preserve"
       style="font-size:45px;font-style:normal;font-variant:normal;font-weight:normal;font-stretch:normal;text-align:center;line-height:125%;letter-spacing:0px;word-spacing:0px;text-anchor:middle;fill:#000000;fill-opacity:1;stroke:none;font-family:ComicSpice;-inkscape-font-specification:ComicSpice"
       x="1710.6912"
       y="1872.2094"
       id="text5521"
       sodipodi:linespacing="125%"><tspan
         sodipodi:role="line"
         id="tspan5523"
         x="1710.6912"
         y="1872.2094">Các người nên</tspan><tspan
         sodipodi:role="line"
         x="1710.6912"
         y="1928.4594"
         id="tspan5525">đi kiếm phòng!</tspan></text>
    <path
       sodipodi:type="arc"
       style="opacity:0.98999999;color:#000000;fill:#ffffff;fill-opacity:1;fill-rule:nonzero;stroke:none;stroke-width:3;marker:none;visibility:visible;display:inline;overflow:visible;enable-background:accumulate"
       id="path5535"
       sodipodi:cx="1740.91"
       sodipodi:cy="1773.358"
       sodipodi:rx="27.145699"
       sodipodi:ry="27.145699"
       d="m 1768.0557,1773.358 a 27.145699,27.145699 0 1 1 -54.2914,0 27.145699,27.145699 0 1 1 54.2914,0 z"
       transform="translate(18.438588,1.024366)" />
    <path
       sodipodi:type="arc"
       style="opacity:0.98999999;color:#000000;fill:#ffffff;fill-opacity:1;fill-rule:nonzero;stroke:none;stroke-width:3;marker:none;visibility:visible;display:inline;overflow:visible;enable-background:accumulate"
       id="path5537"
       sodipodi:cx="1710.1791"
       sodipodi:cy="1727.2615"
       sodipodi:rx="12.804575"
       sodipodi:ry="12.804575"
       d="m 1722.9837,1727.2615 a 12.804575,12.804575 0 1 1 -25.6092,0 12.804575,12.804575 0 1 1 25.6092,0 z"
       transform="matrix(1.36,0,0,1.36,-590.56751,-620.27759)" />
    <path
       sodipodi:type="arc"
       style="opacity:0.98999999;color:#000000;fill:#ffffff;fill-opacity:1;fill-rule:nonzero;stroke:none;stroke-width:3;marker:none;visibility:visible;display:inline;overflow:visible;enable-background:accumulate"
       id="path5539"
       sodipodi:cx="1687.1309"
       sodipodi:cy="1698.0671"
       sodipodi:rx="9.2192936"
       sodipodi:ry="9.2192936"
       d="m 1696.3502,1698.0671 a 9.2192936,9.2192936 0 1 1 -18.4386,0 9.2192936,9.2192936 0 1 1 18.4386,0 z"
       transform="translate(17.414222,-4.097464)" />
    <path
       style="color:#000000;fill:#ffffff;stroke:none;stroke-width:3;marker:none;visibility:visible;display:inline;overflow:visible;enable-background:accumulate"
       d="m 2129.8403,3178.0014 c 9.5931,-16.9618 -10.13,-48.6081 -36.1366,-30.5783 -8.2128,-7.8302 -25.7867,-13.5571 -39.2036,-2.0626 -7.2758,-25.9783 -59.8102,-29.5882 -68.0138,-4.4456 -16.3117,-14.2727 -34.5569,-16.7306 -51.7728,-3.1576 -14.8794,-19.1309 -42.4334,-20.3457 -67.4403,-6.4229 -11.9297,-13.3451 -41.4353,-4.3073 -41.4353,20.3929 -45.4597,-7.2319 -48.5199,50.8023 -14.5434,60.9953 -5.4237,35.0497 38.7106,33.1626 47.0475,19.5376 11.4998,36.2625 50.5611,37.9413 70.3159,5.0166 14.5499,10.3109 25.5662,8.5128 36.2128,-3.6549 1.8778,7.9678 16.5489,17.3736 39.1999,9.2816 13.5242,21.9147 47.6935,9.9918 55.3015,-15.3686 6.0634,19.506 43.2781,14.2838 49.6319,-3.1892 24.9857,9.7758 47.2899,-35.7628 20.8363,-46.3443 z"
       id="path6520"
       inkscape:connector-curvature="0"
       sodipodi:nodetypes="ccccccccccccccc" />
    <text
       xml:space="preserve"
       style="font-size:45px;font-style:normal;font-variant:normal;font-weight:normal;font-stretch:normal;text-align:center;line-height:125%;letter-spacing:0px;word-spacing:0px;text-anchor:middle;fill:#000000;fill-opacity:1;stroke:none;font-family:ComicSpice;-inkscape-font-specification:ComicSpice"
       x="1968.2166"
       y="3203.021"
       id="text6522"
       sodipodi:linespacing="125%"><tspan
         sodipodi:role="line"
         x="1968.2166"
         y="3203.021"
         id="tspan6526">Làm ơn xuống đi!</tspan></text>
    <path
       sodipodi:type="arc"
       style="opacity:0.98999999;color:#000000;fill:#ffffff;fill-opacity:1;fill-rule:nonzero;stroke:none;stroke-width:2;marker:none;visibility:visible;display:inline;overflow:visible;enable-background:accumulate"
       id="path6530"
       sodipodi:cx="1953.0278"
       sodipodi:cy="3094.168"
       sodipodi:rx="30.377619"
       sodipodi:ry="30.377619"
       d="m 1983.4055,3094.168 a 30.377619,30.377619 0 1 1 -60.7553,0 30.377619,30.377619 0 1 1 60.7553,0 z" />
    <path
       sodipodi:type="arc"
       style="opacity:0.98999999;color:#000000;fill:#ffffff;fill-opacity:1;fill-rule:nonzero;stroke:none;stroke-width:2;marker:none;visibility:visible;display:inline;overflow:visible;enable-background:accumulate"
       id="path6532"
       sodipodi:cx="1913.1572"
       sodipodi:cy="3022.6538"
       sodipodi:rx="20.884613"
       sodipodi:ry="20.884613"
       d="m 1934.0418,3022.6538 a 20.884613,20.884613 0 1 1 -41.7692,0 20.884613,20.884613 0 1 1 41.7692,0 z"
       transform="translate(1.2657341,10.125873)" />
    <path
       sodipodi:type="arc"
       style="opacity:0.98999999;color:#000000;fill:#ffffff;fill-opacity:1;fill-rule:nonzero;stroke:none;stroke-width:2;marker:none;visibility:visible;display:inline;overflow:visible;enable-background:accumulate"
       id="path6534"
       sodipodi:cx="1916.9543"
       sodipodi:cy="2964.4302"
       sodipodi:rx="15.821677"
       sodipodi:ry="15.821677"
       d="m 1932.776,2964.4302 a 15.821677,15.821677 0 1 1 -31.6433,0 15.821677,15.821677 0 1 1 31.6433,0 z"
       transform="translate(-6.3286707,8.860139)" />
    <path
       sodipodi:type="arc"
       style="opacity:0.98999999;color:#000000;fill:#ffffff;fill-opacity:1;fill-rule:nonzero;stroke:none;stroke-width:2;marker:none;visibility:visible;display:inline;overflow:visible;enable-background:accumulate"
       id="path6536"
       sodipodi:cx="1922.0173"
       sodipodi:cy="2907.4722"
       sodipodi:rx="8.227272"
       sodipodi:ry="8.227272"
       d="m 1930.2446,2907.4722 a 8.227272,8.227272 0 1 1 -16.4545,0 8.227272,8.227272 0 1 1 16.4545,0 z"
       transform="translate(-7.5944048,20.251747)" />
  </g>
</svg>
